<svg width="1440" height="46" viewBox="0 0 1440 46" fill="none" xmlns="http://www.w3.org/2000/svg">
<path d="M1131.66 4.71848C1142.32 4.00498 1151.55 12.0699 1152.26 22.7319C1152.97 33.3943 1144.91 42.6161 1134.25 43.3299C1123.58 44.0434 1114.36 35.9785 1113.65 25.3161C1113.15 17.9203 1116.93 10.8914 1123.36 7.21824C1125.91 5.76924 1128.74 4.91435 1131.66 4.71848ZM1132.25 6.36334C1122.49 6.75111 1114.9 14.9729 1115.29 24.7267C1115.67 34.4808 1123.9 42.0735 1133.65 41.6858C1143.4 41.2976 1151 33.0762 1150.61 23.3221C1150.37 17.3818 1147.17 11.9584 1142.08 8.88836C1139.12 7.10137 1135.7 6.22303 1132.24 6.36334H1132.25Z" fill="black"/>
<path d="M1128.65 9.12082C1130.51 8.48767 1132.46 8.21799 1134.41 8.32571C1134.62 8.31582 1134.82 8.3521 1135.01 8.43197C1137.15 10.1918 1138.85 12.4642 1139.95 15.0529C1141.14 18.0398 1141.58 21.2913 1141.23 24.5025C1141.01 26.8383 1140.47 29.1294 1139.62 31.3066H1141.15C1141.29 30.9072 1141.43 30.5042 1141.59 30.1085C1143.36 30.3415 1145.01 31.1872 1146.26 32.5084C1145.01 33.8385 1143.36 34.6856 1141.58 34.9084C1141.44 34.5163 1141.29 34.1279 1141.16 33.7359C1136.49 33.7359 1131.81 33.7359 1127.14 33.7359C1126.91 33.752 1126.68 33.8359 1126.49 33.9777C1125.98 34.2452 1125.47 34.5236 1124.96 34.7911C1124.77 34.8809 1124.56 34.9186 1124.36 34.901C1123.75 34.901 1123.15 34.901 1122.54 34.901C1121.27 33.4988 1120.24 31.8815 1119.5 30.1195H1123.63C1123.92 30.0883 1124.22 30.1206 1124.5 30.2147C1125.19 30.5199 1125.87 30.8292 1126.56 31.1417C1127.07 31.4568 1127.69 31.27 1128.26 31.3176C1128.18 29.8036 1127.75 28.3303 1127.03 27.0123C1126.26 25.738 1125.18 24.6897 1123.91 23.9675C1122.2 23.0171 1120.35 22.3528 1118.44 21.9999C1118.7 19.9122 1119.36 17.9002 1120.39 16.0862C1121.73 16.4024 1123.06 16.8113 1124.35 17.31C1125.73 17.82 1127.05 18.5239 1128.25 19.4021L1128.63 19.2079C1127.86 18.3124 1126.98 17.5133 1126.03 16.8263C1124.67 15.8026 1123.25 14.8712 1121.78 14.038C1123.02 12.4723 1124.54 11.1719 1126.26 10.209C1127.44 10.7059 1128.54 11.379 1129.53 12.2059C1131.03 13.4532 1132.43 14.8338 1133.7 16.3317L1134.19 16.1961C1132.92 13.4334 1130.89 11.1104 1128.65 9.12082ZM1135.56 25.7006C1134.57 26.026 1134.02 27.1179 1134.34 28.1401C1134.65 29.162 1135.71 29.727 1136.7 29.4017C1137.69 29.0763 1138.23 27.9841 1137.92 26.9622C1137.8 26.5793 1137.57 26.2433 1137.26 26.0011C1136.77 25.6226 1136.14 25.5108 1135.56 25.7006Z" fill="black"/>
<g clip-path="url(#clip0_154_501)">
<path d="M1216.64 4.67456C1206.22 4.67456 1197.77 13.3384 1197.77 24.0242C1197.77 34.71 1206.22 43.3738 1216.64 43.3738C1227.06 43.3738 1235.51 34.71 1235.51 24.0242C1235.51 13.3384 1227.06 4.67456 1216.64 4.67456ZM1216.64 5.93229C1226.38 5.93229 1234.28 14.0317 1234.28 24.0242C1234.28 34.0151 1226.38 42.1145 1216.64 42.1145C1206.9 42.1145 1199 34.0151 1199 24.0242C1199 14.0333 1206.9 5.93229 1216.64 5.93229ZM1215.57 6.94814C1215.06 6.97072 1214.54 7.01587 1214.02 7.07392L1213.85 11.821C1214.22 11.7568 1214.59 11.7062 1214.96 11.6695L1215.07 8.46386L1215.05 8.24296L1215.12 8.45258L1216.16 10.8535H1217.12L1218.16 8.45419L1218.22 8.24296L1218.21 8.46386L1218.32 11.6695C1218.68 11.7049 1219.06 11.7565 1219.43 11.821L1219.26 7.07392C1218.74 7.01401 1218.22 6.97206 1217.7 6.94814L1216.68 9.56841L1216.64 9.7619L1216.6 9.56841L1215.57 6.94814ZM1226.1 9.88929L1223.68 13.8044C1223.98 14.0462 1224.39 14.4026 1224.65 14.6461L1226.93 13.4303L1227.07 13.319L1226.97 13.4706L1225.78 15.8135C1226.04 16.0957 1226.41 16.552 1226.62 16.8294L1230.44 14.3397C1230.2 14.0288 1229.96 13.7235 1229.71 13.4238L1227.3 15.0589L1227.13 15.2072L1227.25 15.0218L1228.32 12.8353L1227.57 12.0613L1225.44 13.1578L1225.25 13.2835L1225.4 13.1126L1227 10.631C1226.71 10.3859 1226.45 10.1618 1226.1 9.88929ZM1206.42 10.7778C1205.86 10.8374 1205.42 11.2341 1204.23 12.5918C1203.82 13.0702 1203.42 13.5617 1203.04 14.0656L1206.3 17.2373C1207.38 16.0118 1207.82 15.5571 1208.67 14.6364C1209.27 13.9833 1209.62 13.2336 1209.01 12.5128C1208.69 12.1226 1208.14 12.0371 1207.68 12.2306L1207.63 12.2467L1207.65 12.2048C1207.7 11.9908 1207.7 11.7645 1207.63 11.554C1207.56 11.3435 1207.44 11.1582 1207.27 11.0212C1207.15 10.9257 1207.01 10.8551 1206.87 10.8136C1206.72 10.7721 1206.57 10.7588 1206.42 10.7778ZM1206.43 11.7694C1206.64 11.7098 1206.87 11.8662 1206.92 12.0919C1206.97 12.3177 1206.83 12.5305 1206.67 12.7079C1206.33 13.111 1205.05 14.4784 1205.05 14.4784L1204.42 13.8608C1205.08 13.0384 1205.77 12.2903 1206.09 11.9936C1206.18 11.8922 1206.3 11.8154 1206.43 11.7694ZM1216.64 12.5482C1213.87 12.547 1211.2 13.5997 1209.14 15.5025C1207.09 17.4054 1205.79 20.023 1205.51 22.8487V22.8519C1205.33 24.6447 1205.57 26.4551 1206.2 28.1369C1206.83 29.8187 1207.84 31.3246 1209.14 32.5329C1210.44 33.7412 1212.01 34.6179 1213.7 35.0922C1215.4 35.5665 1217.18 35.625 1218.9 35.2631C1221.42 34.7312 1223.69 33.3224 1225.31 31.2746C1226.94 29.2269 1227.83 26.6658 1227.83 24.0242C1227.83 20.9821 1226.65 18.0654 1224.55 15.9145C1222.45 13.7635 1219.61 12.554 1216.64 12.5515V12.5482ZM1207.94 12.9385C1208.01 12.9385 1208.09 12.9594 1208.16 13.0078C1208.29 13.1029 1208.36 13.2658 1208.32 13.427C1208.28 13.6189 1208.13 13.7995 1208 13.9398L1206.36 15.7458L1205.7 15.1008C1205.7 15.1008 1206.93 13.7592 1207.34 13.3287C1207.5 13.1578 1207.6 13.0546 1207.71 12.9981C1207.78 12.9618 1207.86 12.9414 1207.94 12.9385ZM1216.64 14.0559C1217.92 14.0544 1219.18 14.3112 1220.36 14.8117C1221.54 15.3121 1222.61 16.0463 1223.52 16.9722C1224.42 17.8982 1225.13 18.9977 1225.62 20.2077C1226.11 21.4178 1226.36 22.7147 1226.36 24.0242H1216.64V33.9925C1215.36 33.994 1214.1 33.7371 1212.92 33.2367C1211.74 32.7363 1210.67 32.0021 1209.76 31.0762C1208.86 30.1502 1208.15 29.0507 1207.66 27.8407C1207.17 26.6306 1206.92 25.3337 1206.92 24.0242H1216.64V14.0559Z" fill="black"/>
</g>
<path fill-rule="evenodd" clip-rule="evenodd" d="M1057.76 6.86823C1063.92 10.1083 1068.13 16.5681 1068.13 24.0143C1068.13 31.4604 1063.92 37.9406 1057.76 41.1608V38.9468C1060.12 37.5373 1062.11 35.5651 1063.56 33.2309L1057.76 30.8769V27.2946L1064.13 32.2655C1065.45 29.8101 1066.2 27.0125 1066.2 24.0138C1066.2 17.6945 1062.82 12.1406 1057.76 9.08124V6.86823ZM1048.8 4.67456C1052.02 4.67456 1055.06 5.45976 1057.76 6.86823V9.08226C1055.29 7.59232 1052.39 6.70732 1049.33 6.60649L1051.54 22.4449L1057.76 27.2951V30.8774L1048.76 27.2345L1039.82 30.8972V27.3348L1046.08 22.4444L1048.28 6.60599C1045.18 6.70681 1042.3 7.59232 1039.82 9.08124V6.86823C1042.5 5.45976 1045.56 4.67456 1048.8 4.67456ZM1057.76 41.1608C1055.06 42.5693 1052.02 43.3738 1048.8 43.3738C1045.56 43.3738 1042.5 42.5693 1039.82 41.1807V38.9468C1042.44 40.536 1045.52 41.4419 1048.8 41.4419C1052.06 41.4419 1055.13 40.536 1057.76 38.9468V41.1608ZM1039.82 41.1807C1033.64 37.9406 1029.43 31.4604 1029.43 24.0143C1029.43 16.5681 1033.64 10.1083 1039.82 6.86823V9.08226C1034.75 12.1411 1031.37 17.6751 1031.37 24.0143C1031.37 27.0125 1032.13 29.8508 1033.46 32.3057L1039.82 27.3348V30.8972L1034.04 33.2712C1035.49 35.5865 1037.47 37.5378 1039.82 38.9468V41.1807Z" fill="black"/>
<path d="M959.521 41.1319C950.088 41.1319 942.412 33.4568 942.412 24.0233C942.412 23.5365 942.437 23.0552 942.479 22.5795L956.781 23.4725L950.591 27.7511C950.508 27.8095 950.452 27.9069 950.452 28.0154C950.452 28.1935 950.597 28.3409 950.775 28.3409H976.079C974.16 35.6905 967.463 41.1322 959.521 41.1322M959.521 6.91443C968.957 6.91443 976.63 14.5895 976.63 24.023C976.63 24.507 976.605 24.9856 976.566 25.4585H976.557L962.255 24.5487L968.462 20.2952C968.548 20.2368 968.601 20.1394 968.601 20.0309C968.601 19.8501 968.456 19.7054 968.278 19.7054H942.966C944.882 12.3558 951.579 6.91404 959.521 6.91404M984.049 25.9341L979.367 25.6364L978.802 25.6002C978.844 25.08 978.872 24.5542 978.872 24.0229C978.872 13.3545 970.192 4.67456 959.52 4.67456C950.335 4.67456 942.631 11.1092 940.662 19.705H936.386C936.144 19.705 935.93 19.8191 935.794 19.9971L934.7 21.5077C934.65 21.5717 934.62 21.6524 934.62 21.7386C934.62 21.9445 934.787 22.1114 934.995 22.1114L939.658 22.4007L940.242 22.4397C940.2 22.9627 940.172 23.4885 940.172 24.0226C940.172 34.691 948.852 43.3738 959.521 43.3738C968.706 43.3738 976.413 36.9364 978.379 28.3405H982.658C982.9 28.3405 983.114 28.2265 983.25 28.0484L984.344 26.5378C984.394 26.4739 984.422 26.3932 984.422 26.3069C984.422 26.1011 984.255 25.9341 984.049 25.9341" fill="black"/>
<g clip-path="url(#clip1_154_501)">
<path d="M694.199 25.4367C694.142 25.4367 694.034 25.3625 693.85 25.0175C693.08 23.5474 692.023 22.2558 690.745 21.2233C689.742 20.4165 688.628 19.7655 687.44 19.2916C687.26 19.2166 687.079 19.1435 686.898 19.0723C685.307 18.4273 683.657 17.7614 682.126 16.8519C681.956 16.7534 681.789 16.6512 681.623 16.5456C681.928 15.9973 682.283 15.4733 682.676 14.9944C683.247 14.2951 683.91 13.6812 684.646 13.1707C685.437 12.6285 686.292 12.1917 687.19 11.871C689.105 11.1712 691.399 10.8277 694.199 10.8245C697.002 10.8277 699.294 11.1712 701.209 11.8726C702.108 12.1922 702.963 12.6284 703.754 13.1707C704.49 13.6812 705.153 14.2944 705.724 14.9928C706.117 15.4733 706.471 15.9973 706.778 16.5456C706.616 16.6488 706.444 16.7536 706.275 16.8552C704.74 17.7646 703.094 18.4305 701.5 19.0739L700.958 19.2932C699.771 19.7676 698.658 20.4184 697.656 21.2249C696.377 22.2575 695.32 23.5497 694.551 25.0207C694.367 25.3642 694.257 25.4367 694.199 25.4367ZM694.199 36.8417C691.771 36.8385 689.8 36.6337 688.177 36.2177C686.585 35.8113 685.261 35.1857 684.128 34.3021C683.259 33.6177 682.517 32.7781 681.939 31.8237C681.397 30.9332 680.969 29.9751 680.666 28.9729C680.192 27.4152 679.944 25.7945 679.931 24.1629C679.931 23.0761 680.005 22.0457 680.144 21.0976C681.883 22.0586 683.529 22.5407 684.986 22.968L685.324 23.0648C687.352 23.663 688.962 24.4467 690.253 25.4641C690.999 26.0575 691.652 26.7428 692.186 27.5023C692.767 28.3214 693.229 29.2567 693.565 30.2838C693.716 30.7498 693.88 31.0384 694.199 31.0384C694.524 31.0384 694.683 30.7482 694.836 30.2838C695.436 28.3693 696.591 26.6883 698.148 25.4657C699.437 24.4467 701.049 23.663 703.077 23.0648L703.416 22.968C704.872 22.5407 706.518 22.0586 708.255 21.0976C708.397 22.0473 708.469 23.0761 708.469 24.1613C708.469 24.8998 708.397 26.8444 707.738 28.9729C707.435 29.9749 707.007 30.933 706.466 31.8237C705.886 32.7787 705.143 33.6184 704.272 34.3021C703.135 35.1857 701.811 35.8113 700.225 36.2177C698.598 36.6337 696.628 36.8385 694.199 36.8417ZM709.436 13.3706C706.435 10.065 701.591 8.54932 694.199 8.54126C686.81 8.54932 681.966 10.0634 678.965 13.369C676.734 15.8216 675.334 19.2158 675.334 23.821C675.334 26.3671 675.948 32.8509 680.938 36.1983C683.925 38.201 687.783 39.4974 694.199 39.5071C700.618 39.4974 704.474 38.201 707.463 36.1983C712.452 32.8509 713.066 26.3655 713.066 23.821C713.066 19.2287 711.656 15.8103 709.435 13.3674L709.436 13.3706Z" fill="black"/>
</g>
<g clip-path="url(#clip2_154_501)">
<path d="M785.6 25.5705C785.563 25.5797 785.416 25.5797 785.351 25.5797H780.597V26.6809H785.434C785.471 26.6809 785.757 26.6809 785.812 26.6717C786.798 26.58 787.25 25.7632 787.25 25.0474C787.25 24.3133 786.78 23.524 785.886 23.4414C785.711 23.4231 785.563 23.4231 785.499 23.4231H782.338C782.2 23.4231 782.044 23.4139 781.988 23.3956C781.739 23.3313 781.647 23.1111 781.647 22.9275C781.647 22.7624 781.739 22.5421 781.997 22.4687C782.071 22.4503 782.154 22.4412 782.329 22.4412H786.89V21.3583H782.255C782.062 21.3583 781.915 21.3675 781.795 21.3858C781.002 21.4959 780.449 22.1291 780.449 22.9367C780.449 23.5975 780.864 24.3683 781.776 24.4968C781.942 24.5152 782.173 24.5152 782.274 24.5152H785.351C785.407 24.5152 785.545 24.5152 785.573 24.5243C785.923 24.5702 786.042 24.8272 786.042 25.0566C786.042 25.2768 785.904 25.5154 785.6 25.5705Z" fill="black"/>
<path d="M776.589 25.5705C776.552 25.5797 776.404 25.5797 776.349 25.5797H771.585V26.6809H776.423C776.46 26.6809 776.745 26.6809 776.801 26.6717C777.787 26.58 778.238 25.7632 778.238 25.0474C778.238 24.3133 777.768 23.524 776.874 23.4414C776.699 23.4231 776.552 23.4231 776.487 23.4231H773.327C773.189 23.4231 773.032 23.4139 772.977 23.3956C772.728 23.3313 772.636 23.1111 772.636 22.9275C772.636 22.7624 772.728 22.5421 772.986 22.4687C773.06 22.4503 773.143 22.4412 773.318 22.4412H777.879V21.3583H773.244C773.05 21.3583 772.903 21.3675 772.783 21.3858C771.991 21.4959 771.438 22.1291 771.438 22.9367C771.438 23.5975 771.853 24.3683 772.765 24.4968C772.931 24.5152 773.161 24.5152 773.262 24.5152H776.34C776.395 24.5152 776.533 24.5152 776.561 24.5243C776.911 24.5702 777.031 24.8272 777.031 25.0566C777.031 25.2768 776.902 25.5154 776.589 25.5705Z" fill="black"/>
<path d="M769.107 21.3216H767.909V26.7085H769.107V21.3216Z" fill="black"/>
<path d="M765.264 26.7085V21.3216H764.067V25.3411L760.077 21.3216H758.538V26.7085H759.736V22.6706L763.753 26.7085H765.264Z" fill="black"/>
<path d="M803.789 21.3216V25.3411L799.799 21.3216H798.26V26.7085H799.458V22.6706L803.466 26.7085H804.977V21.3216H803.789Z" fill="black"/>
<path d="M792.022 21.3216L788.65 26.7085H790.106L790.705 25.7449H794.639L795.238 26.7085H796.685L793.312 21.3216H792.022ZM794.022 24.7262H791.322L792.676 22.5605L794.022 24.7262Z" fill="black"/>
<path d="M765.2 18.2656C767.614 11.2453 774.267 6.52831 781.767 6.52831C789.267 6.52831 795.929 11.2453 798.334 18.2656L798.352 18.3207H803.632V17.6875L801.439 17.4305C800.085 17.2745 799.799 16.678 799.431 15.9255L799.338 15.742C796.169 9.02444 789.267 4.67456 781.767 4.67456C774.257 4.67456 767.365 9.02444 764.196 15.7603L764.104 15.9439C763.735 16.6964 763.449 17.2929 762.095 17.4489L759.902 17.7058V18.3391H765.172L765.2 18.2656Z" fill="black"/>
<path d="M798.353 29.7185L798.334 29.7735C795.92 36.7939 789.267 41.5017 781.767 41.5017C774.267 41.5017 767.605 36.7847 765.2 29.7644L765.182 29.7093H759.911V30.3425L762.104 30.5995C763.459 30.7555 763.744 31.352 764.113 32.1045L764.205 32.288C767.375 39.0239 774.276 43.3738 781.776 43.3738C789.277 43.3738 796.178 39.0239 799.348 32.2972L799.44 32.1137C799.808 31.3611 800.094 30.7646 801.449 30.6086L803.641 30.3517V29.7185H798.353Z" fill="black"/>
</g>
<path d="M596.969 4.67456C605.203 4.67456 614.03 6.36217 621.053 10.8487C625.617 13.7827 629.863 18.2334 629.863 24.0297C629.863 30.8022 624.115 35.7272 618.608 38.6088C612.053 42.0226 604.31 43.3738 596.969 43.3738C588.737 43.3738 579.927 41.7055 572.901 37.2025C568.34 34.2657 564.074 29.8178 564.074 24.0325C564.074 17.2296 569.809 12.324 575.33 9.43683C581.903 6.02851 589.63 4.67456 596.969 4.67456ZM596.9 6.73168C589.244 6.73168 580.996 8.17388 574.354 12.1999C570.176 14.7148 566.048 18.6718 566.048 23.9277C566.048 30.1018 571.64 34.4229 576.64 36.9047C582.829 39.9435 590.064 41.1237 596.9 41.1237C604.57 41.1237 612.824 39.6815 619.466 35.6555C623.624 33.1241 627.769 29.1863 627.769 23.9277C627.769 17.7425 622.19 13.4132 617.177 10.9535C610.987 7.90915 603.75 6.73168 596.9 6.73168ZM568.008 19.6535L580.609 17.4916L584.403 9.21071L588.18 17.4888L600.779 19.6507L588.18 21.8347L584.403 30.1349L580.609 21.8347L568.008 19.6535ZM595.71 25.9655L601.27 24.9838L602.928 21.2363L604.589 24.9838L610.148 25.9655L604.589 26.9306L602.928 30.6809L601.27 26.9306L595.71 25.9655ZM607.212 15.9805L612.772 15.0153L614.43 11.2513L616.091 15.0126L621.65 15.9777L616.091 16.9621L614.43 20.7124L612.769 16.9621L607.212 15.9805ZM601.272 33.7032L606.81 32.738L608.473 28.974L610.151 32.738L615.707 33.7032L610.151 34.6876L608.473 38.4378L606.812 34.6876L601.272 33.7032ZM584.195 35.0571L589.754 34.092L591.431 30.3252L593.09 34.092L598.649 35.0571L593.09 36.0415L591.431 39.789L589.754 36.0415L584.195 35.0571ZM612.144 25.8111L617.687 24.8266L619.345 21.0791L621.023 24.8266L626.582 25.8111L621.023 26.7762L619.345 30.5182L617.684 26.7762L612.144 25.8111Z" fill="black"/>
<g clip-path="url(#clip3_154_501)">
<path d="M867.981 24.9659H868.771L868.769 22.6246H867.981V22.1054H871.109V22.6246H870.33V24.9643H871.054C871.723 24.9643 872.162 24.5225 872.162 23.9226H872.678V25.49H867.981V24.9659ZM874.935 25.4932H876.764L878.315 22.6246H879.092V22.1054H876.754V22.6246H877.43L876.3 24.7127L875.155 22.6246H875.977L875.974 22.1054H872.581V22.6246H873.358L874.935 25.4932ZM858.629 22.1054H855.234V22.6246H856.01L857.59 25.4932H859.417L860.968 22.6246H861.745V22.1054H859.407V22.6246H860.081L858.953 24.7127L857.808 22.6246H858.629V22.1054ZM864.606 22.0344C866.178 22.0344 867.021 22.8181 867.021 23.8017C867.021 24.7982 866.225 25.5932 864.614 25.5932C863.003 25.5932 862.2 24.7982 862.2 23.8017C862.2 22.8181 863.034 22.0344 864.606 22.0344ZM864.633 22.5665C864.096 22.5585 863.784 23.1277 863.772 23.7807C863.763 24.4096 864.014 25.0449 864.588 25.0546C865.178 25.0659 865.433 24.4257 865.443 23.8098C865.456 23.1567 865.172 22.5778 864.633 22.5682V22.5665ZM881.948 22.0344C883.519 22.0344 884.362 22.8181 884.362 23.8017C884.362 24.7982 883.567 25.5932 881.956 25.5932C880.344 25.5932 879.541 24.7982 879.541 23.8017C879.541 22.8181 880.376 22.0344 881.948 22.0344ZM881.114 23.7807C881.103 24.4096 881.356 25.0449 881.93 25.0546C882.521 25.0659 882.775 24.4257 882.785 23.8098C882.798 23.1567 882.514 22.5778 881.975 22.5682C881.439 22.5585 881.126 23.1277 881.114 23.7807ZM885.721 13.0304L883.756 14.9944C885.499 17.6828 886.425 20.8198 886.419 24.0242C886.419 33.204 878.978 40.6456 869.798 40.6456C860.618 40.6456 853.177 33.204 853.177 24.0242C853.177 14.8444 860.618 7.40288 869.798 7.40288C873.136 7.40288 876.242 8.38649 878.846 10.0796L880.811 8.11398C877.578 5.869 873.734 4.66866 869.798 4.67458C859.112 4.67458 850.448 13.3384 850.448 24.0242C850.448 34.7101 859.112 43.3739 869.798 43.3739C880.484 43.3739 889.148 34.7101 889.148 24.0242C889.148 19.9398 887.882 16.1521 885.721 13.0304ZM879.531 5.43567V5.97907C880.705 6.61438 881.809 7.36418 882.832 8.2075L880.074 10.9648C881.115 11.7809 882.054 12.7185 882.872 13.7576L885.626 11.0035C886.471 12.0291 887.221 13.1352 887.858 14.2897H888.387V5.43728L879.531 5.43567Z" fill="black"/>
</g>
<g clip-path="url(#clip4_154_501)">
<path d="M1300.35 41.48C1290.76 41.48 1282.91 33.5867 1282.91 23.9991C1282.91 21.8429 1283.29 19.8022 1284.02 17.8769L1294.23 38.3997C1294.34 38.6692 1294.54 38.9002 1294.84 38.9002C1295.15 38.9002 1295.35 38.6692 1295.46 38.3997L1300.16 27.888C1300.2 27.7725 1300.27 27.657 1300.39 27.657C1300.5 27.657 1300.54 27.7725 1300.62 27.888L1305.32 38.3997C1305.43 38.6692 1305.63 38.9002 1305.93 38.9002C1306.24 38.9002 1306.43 38.6692 1306.55 38.3997L1316.75 17.8769C1317.49 19.8022 1317.87 21.8429 1317.87 23.9991C1317.79 33.5867 1309.94 41.48 1300.35 41.48ZM1300.35 20.0332C1300.24 20.0332 1300.2 19.9177 1300.12 19.8022L1294.65 7.48081C1296.42 6.82624 1298.35 6.4797 1300.35 6.4797C1302.35 6.4797 1304.28 6.82624 1306.05 7.48081L1300.58 19.8022C1300.5 19.9562 1300.47 20.0332 1300.35 20.0332ZM1294.77 32.7011C1294.65 32.7011 1294.61 32.5856 1294.54 32.47L1285.68 14.6041C1287.26 12.1783 1289.38 10.1376 1291.96 8.71294L1298.35 22.921C1298.43 23.152 1298.62 23.229 1298.81 23.229H1301.89C1302.12 23.229 1302.28 23.1905 1302.39 22.921L1308.78 8.71294C1311.32 10.1376 1313.48 12.1783 1315.06 14.6041L1306.13 32.47C1306.09 32.5856 1306.01 32.7011 1305.9 32.7011C1305.78 32.7011 1305.74 32.5856 1305.66 32.47L1302.31 24.8462C1302.2 24.5767 1302.04 24.5382 1301.81 24.5382H1298.73C1298.5 24.5382 1298.35 24.5767 1298.23 24.8462L1295 32.47C1294.96 32.5856 1294.88 32.7011 1294.77 32.7011ZM1300.35 43.2512C1311.02 43.2512 1319.6 34.6648 1319.6 23.9991C1319.6 13.3334 1311.02 4.74701 1300.35 4.74701C1289.69 4.74701 1281.1 13.3334 1281.1 23.9991C1281.1 34.6648 1289.69 43.2512 1300.35 43.2512Z" fill="black"/>
</g>
<path d="M504.907 30.4444C504.926 30.5648 505.084 30.6801 505.237 30.7347C505.293 30.7535 505.321 30.7912 505.262 30.9191C504.825 31.8549 504.424 32.3943 503.877 33.2074C503.373 33.9587 502.806 34.5448 502.12 35.1086C501.084 35.9655 499.646 36.8983 498.457 36.2712C497.929 35.9972 497.7 35.258 497.71 34.6597C497.736 32.9771 498.484 31.2497 499.866 29.5519C501.551 27.4774 503.414 26.4014 504.637 26.9895C505.902 27.5929 505.498 29.0573 504.932 30.2068C504.888 30.2958 504.888 30.371 504.906 30.4438M518.48 17.3334C518.571 17.1729 518.475 17.0556 518.272 17.0556C517.216 17.0556 515.83 17.058 514.729 17.058C514.467 17.058 514.331 17.0893 514.208 17.3339C513.801 18.1123 508.85 25.5333 507.928 26.9744C507.773 27.1939 507.583 27.1631 507.561 26.9117C507.468 26.0557 506.729 25.0718 505.564 24.601C504.676 24.2411 503.809 24.1758 502.907 24.2956C501.278 24.5145 499.827 25.3735 498.552 26.3425C496.629 27.804 494.97 29.6984 492.829 31.0981C491.66 31.8601 490.059 32.5246 488.988 31.5327C488.019 30.6339 488.128 28.6378 489.611 27.0939C489.768 26.9321 489.955 27.0688 489.926 27.2124C489.786 27.9106 489.957 28.605 490.487 29.0918C491.134 29.6719 492.061 29.7374 492.853 29.3502C493.788 28.8868 494.338 27.9919 494.498 26.9762C494.746 25.4008 493.533 24.0112 492.016 23.8997C490.783 23.8132 489.601 24.2421 488.449 25.1928C487.871 25.6719 487.543 26.0259 487.044 26.7362C486.922 26.9112 486.735 26.9287 486.741 26.6703C486.797 24.6532 485.964 23.5183 484.296 23.4813C483.002 23.45 481.619 24.1527 480.541 25.012C479.359 25.961 478.326 27.2185 477.219 28.4002C477.081 28.5457 476.961 28.5387 476.922 28.2565C476.891 26.92 476.553 25.6256 475.934 24.7063C475.715 24.3865 475.255 24.2284 474.868 24.4441C474.689 24.5419 474.067 24.8279 473.614 25.1924C473.39 25.3774 473.302 25.6453 473.402 25.9885C473.999 27.9852 473.868 30.2553 473.057 32.1727C472.313 33.9288 470.868 35.5126 469.169 36.0487C468.049 36.4036 466.886 36.2299 466.166 35.2376C465.177 33.868 465.576 31.4862 467.05 29.5085C468.351 27.767 470.233 26.6608 472.11 25.9485C472.331 25.8632 472.377 25.7215 472.314 25.534C472.212 25.2254 472.049 24.8052 471.983 24.6134C471.811 24.1549 471.329 24.0809 470.74 24.1449C469.377 24.3035 468.146 24.7708 466.931 25.4215C463.749 27.1256 462.153 30.4236 461.454 32.188C461.117 33.0356 460.83 33.5643 460.458 34.0332C459.956 34.6637 459.326 35.2378 458.175 36.249C458.071 36.3419 457.993 36.535 458.081 36.715C458.198 36.9583 458.797 37.8041 458.966 37.8796C459.153 37.9718 459.371 37.8419 459.458 37.7804C460.264 37.2342 461.228 36.3685 461.7 35.7813C461.865 35.58 462.035 35.6647 462.123 35.9701C462.563 37.5408 463.716 38.8232 465.31 39.3598C468.228 40.3437 471.254 38.9195 473.539 36.44C474.99 34.864 475.514 33.8503 476.071 33.1614C477.014 31.9929 478.874 29.3789 481.09 27.7006C481.902 27.0817 482.864 26.6096 483.347 26.9231C483.736 27.1746 483.861 27.759 483.238 28.8915C480.979 33.0168 477.655 37.8636 477.046 39.0389C476.934 39.2427 477.033 39.4032 477.245 39.4032C478.427 39.3974 479.599 39.4003 480.672 39.4003C480.851 39.3941 480.931 39.31 481.02 39.184C482.754 36.4702 484.386 33.8873 486.135 31.2168C486.232 31.0594 486.323 31.1791 486.326 31.2481C486.364 31.8677 486.515 32.7151 486.883 33.2716C487.544 34.3004 488.481 34.7425 489.52 34.7492C490.346 34.7618 490.764 34.6332 491.656 34.3001C492.381 34.0311 492.964 33.678 493.411 33.3585C493.671 33.1767 493.717 33.4808 493.711 33.5272C493.31 35.6816 493.805 38.2343 495.946 39.2928C498.509 40.5562 501.324 38.7804 502.944 37.1773C503.102 37.023 503.272 37.0393 503.288 37.3723C503.326 37.9844 503.6 38.7107 504.106 39.219C505.463 40.5813 508.202 40.0414 510.951 37.9137C512.716 36.5515 514.563 34.6269 516.231 32.5889C516.294 32.5098 516.339 32.3832 516.218 32.2546C515.964 31.9887 515.597 31.6845 515.345 31.4503C515.23 31.3525 515.062 31.3806 514.965 31.4536C513.255 33.0798 511.716 34.9343 509.492 36.4679C508.741 36.9916 507.545 37.414 507.008 36.6868C506.799 36.4046 506.823 36.0144 507.027 35.5022C507.676 33.8848 517.944 18.2509 518.478 17.3288" fill="black"/>
<path d="M470.168 19.2198C470.212 19.4519 470.303 19.4971 470.408 19.4776C470.931 19.3729 471.503 18.9427 471.842 18.444C472.151 17.9918 472.296 17.3393 471.989 17.0778C471.715 16.8427 471.27 16.9091 470.94 17.2007C470.283 17.7814 470.083 18.6054 470.168 19.2203M443.996 39.3446C440.168 39.3697 436.794 37.0052 436.407 32.9091C436.192 30.6393 436.834 28.6164 438.118 26.9499C439.258 25.4649 441.187 24.2312 442.819 23.9298C443.35 23.8326 444.064 23.8921 444.359 24.2459C444.822 24.7846 444.689 25.3763 444.226 25.6125C442.981 26.2483 441.482 27.3369 440.74 28.8234C440.139 30.0366 440.018 31.4987 440.936 32.8917C442.474 35.2131 446.76 35.2769 450.745 31.5747C451.732 30.6686 452.615 29.7981 453.513 28.7669C455.268 26.7601 455.851 26.0288 458.185 22.7926C458.21 22.7549 458.222 22.706 458.21 22.6821C458.191 22.6382 458.16 22.6319 458.09 22.6257C456.532 22.6696 455.174 23.1331 453.855 24.1194C453.475 24.3966 452.928 24.3577 452.688 23.9927C452.421 23.5801 452.613 23.0429 453.051 22.7395C455.174 21.2629 457.494 20.9951 459.862 20.5953C459.861 20.5953 460.027 20.6016 460.162 20.4235C461.135 19.1756 461.869 18.05 462.905 16.788C463.95 15.5076 465.299 14.3318 466.329 13.4486C467.768 12.2115 468.691 11.7952 469.629 11.2849C469.876 11.1557 469.597 11.0015 469.522 11.0015C464.287 10.0175 458.845 8.74424 453.646 10.6691C450.045 12.0128 448.467 14.8683 449.226 16.7764C449.766 18.1299 451.546 18.3499 453.212 17.5344C454.596 16.8562 455.877 15.7632 456.785 14.3561C457.293 13.5747 458.364 14.1385 457.785 15.4954C456.264 19.0714 453.357 21.908 449.817 22.0278C446.804 22.1256 444.859 19.9089 444.866 17.1741C444.878 11.7801 450.883 8.22694 457.194 7.69576C464.794 7.06768 471.992 9.09212 479.538 10.0074C485.32 10.7076 490.863 10.7221 496.674 9.38714C497.361 9.23788 497.843 9.67624 497.798 10.3701C497.742 11.3731 496.965 12.3391 495.051 13.3829C492.874 14.5767 490.597 14.939 488.219 14.9584C482.468 15.0086 477.111 12.7646 471.567 11.5601C471.573 11.8028 471.637 12.0918 471.434 12.245C468.364 14.5099 465.588 16.81 463.729 20.0404C463.666 20.115 463.698 20.1859 463.809 20.1784C465.423 20.0925 466.874 20.0511 468.381 19.9307C468.644 19.9056 468.654 19.8428 468.631 19.6509C468.498 18.5375 468.823 17.2677 469.803 16.3943C470.805 15.4955 472.06 15.3933 472.892 16.0406C473.838 16.7778 473.754 18.1034 473.237 19.0976C472.71 20.1064 471.84 20.6459 471.005 20.9079C471.005 20.9079 470.83 20.9455 470.856 21.1048C470.887 21.3594 472.027 21.9899 472.124 22.1578C472.218 22.3177 472.168 22.5655 471.997 22.7555C471.876 22.8935 471.688 23.0227 471.446 23.0183C471.251 23.0144 471.133 22.9468 470.883 22.812C470.372 22.5354 469.734 22.0807 469.309 21.5446C469.164 21.3634 469.09 21.3597 468.728 21.3797C467.098 21.4738 464.555 21.7197 462.833 21.9348C462.415 21.9849 462.353 22.0645 462.268 22.2094C459.521 26.7383 456.589 31.6221 453.369 34.8919C449.916 38.3979 447.045 39.321 443.998 39.3449" fill="black"/>
<g clip-path="url(#clip5_154_501)">
<path d="M331.995 36.8077C331.995 37.0654 332.079 37.2148 332.233 37.2148C332.364 37.2148 332.472 37.1471 332.57 37.079L376.293 9.6298C377.031 9.1303 377.916 8.87341 378.817 8.89694H388.426C389.899 8.89694 390.895 9.84657 390.895 11.2714V29.0191C390.895 31.1628 390.404 32.4114 388.44 33.5509L376.784 40.3354C376.667 40.4135 376.53 40.4712 376.391 40.4712C376.252 40.4712 376.11 40.3626 376.11 39.9691V19.2636C376.11 19.0191 376.04 18.8565 375.872 18.8565C375.749 18.8565 375.632 18.9174 375.535 18.9923L343.581 39.074C342.852 39.5488 341.996 39.8069 341.126 39.7932H319.945C318.458 39.7932 317.477 38.8436 317.477 37.4051V11.8284C317.477 11.6385 317.393 11.4622 317.224 11.4622C317.101 11.4622 316.985 11.5243 316.887 11.598L295.805 23.8362C295.595 23.972 295.539 24.067 295.539 24.162C295.539 24.2433 295.581 24.3247 295.721 24.4741L310.786 39.0331C310.982 39.2231 311.123 39.3725 311.123 39.5352C311.123 39.671 310.898 39.7796 310.632 39.7796H297.025C295.959 39.7796 295.132 39.6302 294.557 39.074L285.425 30.2544C285.355 30.1735 285.254 30.1186 285.145 30.1186C285.046 30.1186 284.949 30.1511 284.864 30.2L269.603 39.074C268.677 39.6169 268.046 39.766 267.134 39.766H253.093C251.592 39.7796 250.61 38.8164 250.61 37.3915V19.9828C250.61 17.8255 251.101 16.5906 253.079 15.451L264.806 8.6397C264.897 8.57973 265.004 8.54673 265.114 8.54474C265.297 8.54474 265.395 8.72104 265.395 9.11452V32.4254C265.395 32.6698 265.451 32.778 265.633 32.778C265.758 32.778 265.872 32.7103 265.984 32.6421L305.597 9.58893C306.354 9.08687 307.28 8.84285 308.206 8.88332H329.527C331 8.88332 331.996 9.83295 331.996 11.2578L331.982 36.8077H331.995Z" fill="black"/>
</g>
<g clip-path="url(#clip6_154_501)">
<path d="M191.486 25.5884C191.419 29.1404 192.216 31.0219 195.257 31.0219C198.293 31.0219 198.729 27.8169 198.729 25.3781C198.729 22.9376 198.153 20.5685 194.963 20.5685C193.006 20.5685 191.562 22.0326 191.486 25.5884ZM185.334 40.4318V16.3877H191.562C191.562 16.3877 191.562 16.7359 191.562 17.363C191.562 18.664 192.106 18.1275 192.545 17.6205C192.619 17.5358 194.007 15.9001 197.133 15.9001C200.249 15.9001 205.097 17.9902 205.097 25.3781C205.097 31.0927 202.205 35.2735 197.21 35.2735C194.457 35.2735 192.866 34.23 192.502 33.8089C192.138 33.3937 191.632 33.3212 191.632 33.8089C191.632 34.2976 191.632 40.4318 191.632 40.4318H185.334Z" fill="#231F20"/>
<path d="M137.201 8.58404H143.933C143.933 8.58404 143.933 22.6603 143.933 25.5884C143.933 28.5133 142.628 34.6479 133.293 34.6479C123.956 34.6479 122.943 28.9301 122.943 25.7268V22.5911H129.458C129.458 22.5911 129.458 23.7756 129.458 25.656C129.458 27.5374 130.761 29.2788 133.22 29.2788C135.681 29.2788 137.201 27.9553 137.201 25.7268C137.201 23.4966 137.201 8.58404 137.201 8.58404Z" fill="#231F20"/>
<path d="M158.011 23.009C158.011 21.2649 156.999 19.5927 154.683 19.5927C152.44 19.5927 151.643 21.1243 151.643 23.009H158.011ZM154.034 15.6908C159.321 15.6908 163.951 17.6415 163.951 26.6319H151.43C151.43 29.4892 152.66 30.6743 154.831 30.6743C157.003 30.6743 157.726 29.0004 157.726 29.0004H163.88C163.88 31.5798 160.188 35.0643 154.614 34.9951C148.246 34.9951 145.133 30.465 145.133 25.7955C145.133 21.1243 147.882 15.6908 154.034 15.6908Z" fill="#231F20"/>
<path d="M178.026 23.009C178.026 21.2649 177.014 19.5927 174.698 19.5927C172.455 19.5927 171.657 21.1243 171.657 23.009H178.026ZM174.05 15.6908C179.336 15.6908 183.965 17.6415 183.965 26.6319H171.445C171.445 29.4892 172.675 30.6743 174.848 30.6743C177.018 30.6743 177.742 29.0004 177.742 29.0004H183.896C183.896 31.5798 180.204 35.0643 174.631 34.9951C168.26 34.9951 165.147 30.465 165.147 25.7955C165.147 21.1243 167.899 15.6908 174.05 15.6908Z" fill="#231F20"/>
<path d="M200.975 37.5492C200.975 36.597 201.78 35.8234 202.773 35.8234C203.762 35.8234 204.565 36.597 204.565 37.5492C204.565 38.4999 203.762 39.2783 202.773 39.2783C201.78 39.2783 200.975 38.4999 200.975 37.5492ZM200.768 37.5492C200.768 38.6147 201.664 39.4795 202.773 39.4795C203.874 39.4795 204.775 38.6147 204.775 37.5492C204.775 36.4838 203.874 35.619 202.773 35.619C201.664 35.619 200.768 36.4838 200.768 37.5492Z" fill="#231F20"/>
<path d="M203.575 38.5364L203.159 37.59C203.291 37.546 203.335 37.5149 203.406 37.4425C203.497 37.3481 203.554 37.1989 203.554 37.0637C203.554 36.7225 203.282 36.4902 202.887 36.4902H202.051V38.5364H202.299V37.6501H202.903L203.3 38.5364H203.575ZM202.292 37.4425V36.7129H202.882C203.128 36.7129 203.285 36.8481 203.285 37.0573C203.285 37.295 203.119 37.4425 202.847 37.4425H202.292Z" fill="#231F20"/>
</g>
<g clip-path="url(#clip7_154_501)">
<mask id="mask0_154_501" style="mask-type:alpha" maskUnits="userSpaceOnUse" x="1438" y="4" width="36" height="39">
<path d="M1473.93 42.7923H1438.2V4.00592H1473.93V42.7923Z" fill="black"/>
</mask>
<g mask="url(#mask0_154_501)">
<path fill-rule="evenodd" clip-rule="evenodd" d="M1455.26 42.3324C1450.27 40.0393 1445.93 36.2812 1443.05 31.7518C1440.17 27.2355 1438.66 22.0049 1438.29 15.2893C1438.17 13.1468 1438.17 10.4743 1438.29 7.12056L1438.34 5.58994L1439.87 5.33681C1445.26 4.44994 1450.71 3.99994 1456.06 3.99994C1461.42 3.99994 1466.87 4.44994 1472.25 5.33681L1473.78 5.58994L1473.84 7.12056C1473.96 10.4749 1473.96 13.1474 1473.84 15.2893C1473.47 22.0049 1471.96 27.2355 1469.08 31.7518C1466.2 36.2812 1461.86 40.0393 1456.86 42.3324L1456.06 42.6993L1455.26 42.3324Z" fill="black"/>
</g>
<path fill-rule="evenodd" clip-rule="evenodd" d="M1456.06 5.10339C1450.66 5.10339 1445.06 5.55699 1439.37 6.5229C1439.28 8.76642 1439.19 12.2342 1439.35 15.177C1439.71 21.738 1441.18 26.8305 1443.97 31.2035C1446.75 35.5638 1451.06 39.313 1456.06 41.5396C1461.07 39.313 1465.38 35.5638 1468.16 31.2035C1470.95 26.8305 1472.42 21.738 1472.78 15.177C1472.94 12.2342 1472.85 8.76642 1472.76 6.5229C1467.07 5.55699 1461.47 5.10339 1456.06 5.10339ZM1456.06 5.73546C1461.39 5.73546 1466.79 6.18077 1472.14 7.05965C1472.26 10.388 1472.26 13.0362 1472.14 15.1428C1471.78 21.5921 1470.35 26.5889 1467.62 30.8674C1464.89 35.1455 1460.79 38.6795 1456.06 40.8446C1451.34 38.6795 1447.24 35.1455 1444.51 30.8674C1441.78 26.5889 1440.35 21.5921 1439.99 15.1428C1439.87 13.0362 1439.87 10.388 1439.99 7.05965C1445.33 6.18077 1450.74 5.73546 1456.06 5.73546Z" fill="white"/>
</g>
<path d="M1369.78 4.11421C1378.17 3.82663 1386.57 4.11217 1394.95 4.63533C1395.83 4.70978 1396.73 4.70366 1397.59 4.88416C1398.06 4.9943 1398.57 5.16868 1398.85 5.58374C1399.1 6.03551 1399.1 6.56275 1399.17 7.06041C1399.37 9.50486 1399.43 11.9595 1399.61 14.404C1399.25 14.4468 1398.89 14.3928 1398.52 14.3815C1392.06 14.0562 1385.59 13.786 1379.12 13.7778C1375.77 13.787 1372.41 13.7554 1369.06 13.9134C1368.25 14.0297 1367.33 14.2938 1366.86 14.9975C1369.4 15.435 1371.93 15.9072 1374.46 16.3528C1382.86 17.8805 1391.26 19.3745 1399.65 20.9001C1399.65 22.4481 1399.65 23.9962 1399.65 25.5442C1394.93 24.7845 1390.22 23.9646 1385.5 23.1804C1375.35 21.4793 1365.2 19.7549 1355.05 18.0701C1355.07 16.3518 1355.14 14.6344 1355.18 12.9151C1355.24 11.5536 1355.2 10.1739 1355.52 8.8369C1355.73 7.89358 1356.13 6.94517 1356.86 6.27109C1358.13 5.04937 1359.97 4.7057 1361.68 4.53335C1364.37 4.29064 1367.07 4.21109 1369.78 4.11421ZM1355 20.331C1369.54 22.9397 1384.08 25.5922 1398.62 28.2161C1398.94 28.2916 1399.28 28.2977 1399.58 28.4109L1399.62 28.4925C1399.54 30.8115 1399.49 33.1326 1399.41 35.4516C1399.35 36.8824 1399.2 38.3794 1398.44 39.6399C1397.63 40.9432 1396.11 41.6642 1394.62 41.9365C1392.41 42.3393 1390.16 42.3658 1387.92 42.4851C1378.31 42.9094 1368.68 42.6748 1359.08 42.0323C1358.31 41.9803 1357.53 41.9671 1356.79 41.76C1356.4 41.6418 1356 41.451 1355.79 41.1043C1355.55 40.6495 1355.54 40.1304 1355.48 39.6348C1355.27 36.9293 1355.16 34.2186 1355.02 31.5101C1359.97 31.816 1364.93 31.9873 1369.89 32.0944C1374.68 32.1699 1379.47 32.1688 1384.26 32.2147C1385.29 32.2565 1386.41 32.0648 1387.19 31.3591C1387.31 31.2317 1387.49 31.1134 1387.47 30.9227C1385.31 30.6075 1383.17 30.2159 1381.01 29.8712C1372.35 28.4303 1363.67 27.0026 1355.01 25.5534C1354.99 23.8126 1355.01 22.0718 1355 20.331Z" fill="#19191B"/>
<g clip-path="url(#clip8_154_501)">
<path d="M59.0782 3.97437C55.7524 3.97492 52.4804 4.79403 49.5642 6.35609C46.648 7.91816 44.1815 10.1728 42.3924 12.912H13.9292L16.7628 15.6805H40.9138C40.4555 16.7224 40.0918 17.8017 39.8269 18.9059H20.064L22.863 21.6406H39.3687C39.3146 22.198 39.2852 22.7575 39.2807 23.3175C39.2859 23.8346 39.3123 24.3513 39.3599 24.8663H26.1645L28.9635 27.601H39.7904C40.0414 28.7039 40.3908 29.7831 40.8346 30.8264H32.2647L35.0983 33.5949H42.3344C44.1132 36.3659 46.5821 38.6509 49.5103 40.2363C52.4385 41.8217 55.7304 42.6557 59.0782 42.6603C62.426 42.6557 65.718 41.8217 68.6462 40.2363C71.5745 38.6509 74.0435 36.3659 75.8223 33.5949H83.0584L85.892 30.8264H77.3221C77.7659 29.7831 78.1153 28.7039 78.3663 27.601H89.1932L91.9922 24.8663H78.7968C78.8444 24.3513 78.8708 23.8346 78.876 23.3175C78.8716 22.7576 78.8424 22.198 78.7883 21.6406H95.2937L98.0927 18.9059H78.3298C78.065 17.8017 77.7012 16.7224 77.2429 15.6805H101.394L104.227 12.912H75.7643C73.9752 10.1728 71.5087 7.91808 68.5924 6.35601C65.6761 4.79394 62.404 3.97486 59.0782 3.97437ZM59.0782 6.5963C61.3257 6.5963 63.5511 7.0288 65.6275 7.86912C67.7039 8.70944 69.5906 9.94112 71.1798 11.4938C72.769 13.0465 74.0296 14.8899 74.8897 16.9186C75.7498 18.9473 76.1925 21.1216 76.1925 23.3175C76.1925 25.5134 75.7498 27.6877 74.8897 29.7164C74.0296 31.7451 72.769 33.5885 71.1798 35.1412C69.5906 36.6939 67.7039 37.9255 65.6275 38.7659C63.5511 39.6062 61.3257 40.0387 59.0782 40.0387C54.5392 40.0387 50.1861 38.277 46.9766 35.1412C43.767 32.0053 41.9639 27.7522 41.9639 23.3175C41.9639 18.8828 43.767 14.6297 46.9766 11.4938C50.1861 8.35799 54.5392 6.5963 59.0782 6.5963ZM45.4637 18.9836V27.651H47.3138V20.8284L49.2652 27.651H51.1827L53.1407 20.8284V27.651H54.991V18.9836H52.0035L50.2341 24.8959L48.4444 18.9836H45.4637ZM56.9219 18.9836V27.651H58.9135V18.9836H56.9219ZM60.8242 18.9836V27.651H62.6745V21.999L66.6511 27.651H68.6495V18.9836H66.7992V24.7717L62.7623 18.9836H60.8242ZM70.7014 18.9836V27.651H72.693V18.9836H70.7014Z" fill="black"/>
</g>
<defs>
<clipPath id="clip0_154_501">
<rect width="37.7318" height="38.6993" fill="white" transform="translate(1197.77 4.67456)"/>
</clipPath>
<clipPath id="clip1_154_501">
<rect width="37.7318" height="38.6993" fill="white" transform="translate(675.334 4.67456)"/>
</clipPath>
<clipPath id="clip2_154_501">
<rect width="46.4391" height="38.6993" fill="white" transform="translate(758.538 4.67456)"/>
</clipPath>
<clipPath id="clip3_154_501">
<rect width="38.6993" height="38.6993" fill="white" transform="translate(850.448 4.67456)"/>
</clipPath>
<clipPath id="clip4_154_501">
<rect width="38.6993" height="38.6993" fill="white" transform="translate(1280.98 4.67456)"/>
</clipPath>
<clipPath id="clip5_154_501">
<rect width="140.285" height="31.9269" fill="white" transform="translate(250.61 8.54443)"/>
</clipPath>
<clipPath id="clip6_154_501">
<rect width="82.236" height="31.9269" fill="white" transform="translate(122.902 8.54443)"/>
</clipPath>
<clipPath id="clip7_154_501">
<rect width="35.7224" height="38.6993" fill="white" transform="translate(1438.2 4)"/>
</clipPath>
<clipPath id="clip8_154_501">
<rect width="90.2983" height="38.6993" fill="white" transform="translate(13.9292 3.96747)"/>
</clipPath>
</defs>
</svg>
