<svg width="36" height="36" viewBox="0 0 36 36" fill="none" xmlns="http://www.w3.org/2000/svg">
<path d="M17.8983 35.7966C27.7833 35.7966 35.7966 27.7833 35.7966 17.8983C35.7966 8.01334 27.7833 0 17.8983 0C8.01334 0 0 8.01334 0 17.8983C0 27.7833 8.01334 35.7966 17.8983 35.7966Z" fill="#3C5A9A"/>
<path d="M23.718 5.4939H19.7531C17.4001 5.4939 14.783 6.4835 14.783 9.89414C14.7945 11.0825 14.783 12.2207 14.783 13.5016H12.061V17.8331H14.8673V30.3028H20.0239V17.7508H23.4274L23.7353 13.4894H19.935C19.935 13.4894 19.9435 11.5938 19.935 11.0433C19.935 9.69547 21.3375 9.77266 21.4218 9.77266C22.0892 9.77266 23.3868 9.7746 23.7199 9.77266V5.4939H23.718Z" fill="white"/>
</svg>
