<svg width="37" height="36" viewBox="0 0 37 36" fill="none" xmlns="http://www.w3.org/2000/svg">
<path d="M9.87372 35.67C7.74488 35.5732 6.58843 35.2189 5.81924 34.9189C4.80004 34.5221 4.0734 34.0497 3.30847 33.2858C2.54353 32.522 2.0701 31.7953 1.6754 30.7761C1.37539 30.0069 1.02111 28.8505 0.924297 26.7217C0.817909 24.4205 0.796631 23.73 0.796631 17.8999C0.796631 12.0698 0.820036 11.3804 0.923233 9.07709C1.02005 6.94825 1.37645 5.79393 1.67434 5.02261C2.07117 4.00341 2.5446 3.27677 3.3074 2.51077C4.07128 1.7469 4.79791 1.27241 5.81818 0.877707C6.58737 0.577691 7.74381 0.223416 9.87265 0.126603C12.1749 0.0212777 12.8664 0 18.6944 0C24.5245 0 25.2139 0.0234055 27.5172 0.126603C29.6461 0.223416 30.8004 0.579819 31.5717 0.877707C32.5909 1.27241 33.3175 1.7469 34.0825 2.51077C34.8474 3.27464 35.3187 4.00234 35.7155 5.02155C36.0156 5.79074 36.3698 6.94718 36.4666 9.07602C36.572 11.3793 36.5932 12.0687 36.5932 17.8988C36.5932 23.7268 36.572 24.4183 36.4666 26.7217C36.3698 28.8505 36.0134 30.0069 35.7155 30.7761C35.3187 31.7953 34.8463 32.522 34.0825 33.2858C33.3186 34.0497 32.5909 34.5221 31.5717 34.9189C30.8025 35.2189 29.6461 35.5732 27.5172 35.67C25.216 35.7753 24.5245 35.7966 18.6944 35.7966C12.8664 35.7966 12.1749 35.7764 9.87372 35.67Z" fill="url(#paint0_radial_626_1268)"/>
<path d="M9.87372 35.67C7.74488 35.5732 6.58843 35.2189 5.81924 34.9189C4.80004 34.5221 4.0734 34.0497 3.30847 33.2858C2.54353 32.522 2.0701 31.7953 1.6754 30.7761C1.37539 30.0069 1.02111 28.8505 0.924297 26.7217C0.817909 24.4205 0.796631 23.73 0.796631 17.8999C0.796631 12.0698 0.820036 11.3804 0.923233 9.07709C1.02005 6.94825 1.37645 5.79393 1.67434 5.02261C2.07117 4.00341 2.5446 3.27677 3.3074 2.51077C4.07128 1.7469 4.79791 1.27241 5.81818 0.877707C6.58737 0.577691 7.74381 0.223416 9.87265 0.126603C12.1749 0.0212777 12.8664 0 18.6944 0C24.5245 0 25.2139 0.0234055 27.5172 0.126603C29.6461 0.223416 30.8004 0.579819 31.5717 0.877707C32.5909 1.27241 33.3175 1.7469 34.0825 2.51077C34.8474 3.27464 35.3187 4.00234 35.7155 5.02155C36.0156 5.79074 36.3698 6.94718 36.4666 9.07602C36.572 11.3793 36.5932 12.0687 36.5932 17.8988C36.5932 23.7268 36.572 24.4183 36.4666 26.7217C36.3698 28.8505 36.0134 30.0069 35.7155 30.7761C35.3187 31.7953 34.8463 32.522 34.0825 33.2858C33.3186 34.0497 32.5909 34.5221 31.5717 34.9189C30.8025 35.2189 29.6461 35.5732 27.5172 35.67C25.216 35.7753 24.5245 35.7966 18.6944 35.7966C12.8664 35.7966 12.1749 35.7764 9.87372 35.67Z" fill="url(#paint1_radial_626_1268)"/>
<path d="M14.3 17.9746C14.3 15.5265 16.2841 13.5414 18.7322 13.5414C21.1803 13.5414 23.1654 15.5265 23.1654 17.9746C23.1654 20.4227 21.1803 22.4078 18.7322 22.4078C16.2841 22.4078 14.3 20.4227 14.3 17.9746ZM11.9035 17.9746C11.9035 21.7461 14.9607 24.8033 18.7322 24.8033C22.5037 24.8033 25.5609 21.7461 25.5609 17.9746C25.5609 14.2031 22.5037 11.1459 18.7322 11.1459C14.9607 11.1459 11.9036 14.2029 11.9036 17.9746M24.2355 10.8752C24.2353 11.1908 24.3288 11.4994 24.5041 11.7619C24.6793 12.0244 24.9285 12.229 25.22 12.3499C25.5116 12.4708 25.8324 12.5026 26.142 12.4411C26.4516 12.3797 26.736 12.2278 26.9593 12.0047C27.1825 11.7816 27.3346 11.4973 27.3963 11.1878C27.458 10.8782 27.4266 10.5574 27.3059 10.2657C27.1852 9.97407 26.9808 9.72476 26.7184 9.5493C26.4561 9.37384 26.1476 9.28012 25.8319 9.28H25.8313C25.4082 9.28019 25.0025 9.4483 24.7033 9.7474C24.4041 10.0465 24.2358 10.4521 24.2355 10.8752ZM13.3596 28.7995C12.063 28.7404 11.3583 28.5244 10.89 28.342C10.2691 28.1003 9.82607 27.8124 9.3603 27.3472C8.89453 26.8821 8.60621 26.4395 8.36556 25.8187C8.183 25.3505 7.96703 24.6456 7.90809 23.3491C7.84362 21.9473 7.83074 21.5262 7.83074 17.9748C7.83074 14.4235 7.84468 14.0036 7.90809 12.6006C7.96713 11.304 8.1847 10.6005 8.36556 10.131C8.60728 9.51012 8.89516 9.06711 9.3603 8.60134C9.82543 8.13557 10.268 7.84726 10.89 7.60661C11.3581 7.42405 12.063 7.20808 13.3596 7.14914C14.7613 7.08467 15.1824 7.07179 18.7322 7.07179C22.2819 7.07179 22.7035 7.08552 24.1064 7.14935C25.403 7.2084 26.1065 7.42596 26.576 7.60682C27.1969 7.84747 27.6399 8.13643 28.1057 8.60156C28.5714 9.06669 28.8587 9.51033 29.1004 10.1312C29.283 10.5993 29.4989 11.3043 29.5579 12.6008C29.6223 14.0038 29.6352 14.4237 29.6352 17.975C29.6352 21.5264 29.6223 21.9463 29.5579 23.3493C29.4988 24.6458 29.2818 25.3505 29.1004 25.8189C28.8587 26.4398 28.5708 26.8828 28.1057 27.3475C27.6405 27.8122 27.1969 28.1005 26.576 28.3422C26.1079 28.5248 25.403 28.7407 24.1064 28.7997C22.7046 28.8641 22.2835 28.877 18.7322 28.877C15.1808 28.877 14.7609 28.8641 13.3596 28.7997M13.2494 4.75656C11.8337 4.82103 10.8663 5.04551 10.0215 5.37425C9.14709 5.71374 8.40588 6.16919 7.66574 6.90817C6.92559 7.64714 6.47131 8.38846 6.13182 9.26393C5.80308 10.1093 5.5786 11.0762 5.51413 12.4919C5.44859 13.9098 5.43359 14.3631 5.43359 17.9746C5.43359 21.5861 5.44859 22.0394 5.51413 23.4574C5.5786 24.8732 5.80308 25.8399 6.13182 26.6853C6.47131 27.5597 6.9257 28.3024 7.66574 29.0411C8.40578 29.7797 9.14603 30.2345 10.0215 30.575C10.8679 30.9037 11.8337 31.1282 13.2494 31.1927C14.6681 31.2571 15.1207 31.2732 18.7322 31.2732C22.3437 31.2732 22.797 31.2582 24.2149 31.1927C25.6307 31.1282 26.5975 30.9037 27.4429 30.575C28.3173 30.2345 29.0585 29.78 29.7986 29.0411C30.5388 28.3021 30.9921 27.5597 31.3325 26.6853C31.6613 25.8399 31.8868 24.8731 31.9502 23.4574C32.0147 22.0383 32.0297 21.5861 32.0297 17.9746C32.0297 14.3631 32.0147 13.9098 31.9502 12.4919C31.8858 11.0761 31.6613 10.1088 31.3325 9.26393C30.9921 8.38952 30.5376 7.64831 29.7986 6.90817C29.0597 6.16802 28.3173 5.71374 27.4439 5.37425C26.5975 5.04551 25.6306 4.81997 24.216 4.75656C22.7978 4.69177 22.3447 4.67603 18.7338 4.67603C15.1228 4.67603 14.6687 4.69103 13.25 4.75656" fill="white"/>
<defs>
<radialGradient id="paint0_radial_626_1268" cx="0" cy="0" r="1" gradientUnits="userSpaceOnUse" gradientTransform="translate(3.11335 35.0124) scale(45.4484)">
<stop offset="0.09" stop-color="#FA8F21"/>
<stop offset="0.78" stop-color="#D82D7E"/>
</radialGradient>
<radialGradient id="paint1_radial_626_1268" cx="0" cy="0" r="1" gradientUnits="userSpaceOnUse" gradientTransform="translate(25.5917 33.863) scale(39.995)">
<stop offset="0.64" stop-color="#8C3AAA" stop-opacity="0"/>
<stop offset="1" stop-color="#8C3AAA"/>
</radialGradient>
</defs>
</svg>
