<svg width="1440" height="46" viewBox="0 0 1440 46" fill="none" xmlns="http://www.w3.org/2000/svg">
<path d="M1220.97 30.7948L1204.8 9.52574L1188.63 30.7948C1183.17 30.276 1173.79 26.8004 1173.79 20.6271C1173.79 12.8458 1187.57 5.58319 1204.86 5.58319C1223.04 5.58319 1235.92 12.8458 1235.92 20.6271C1235.92 26.8522 1226.48 30.3279 1221.08 30.7429M1204.8 3.30066C1182.43 3.30066 1166.85 11.8601 1166.85 22.9097C1166.85 28.0972 1170.24 33.9073 1177.45 37.4349C1184.18 40.703 1193.62 41.8443 1194.94 41.9999L1204.8 13.8314L1214.66 41.9999C1220.69 41.3388 1226.59 39.8001 1232.16 37.4349C1239.37 33.9073 1242.76 28.0972 1242.76 22.9097C1242.7 11.8083 1227.17 3.30066 1204.8 3.30066Z" fill="#231F20"/>
<path d="M652.789 3.30066C651.723 9.09419 651.284 11.7827 650.406 15.948C649.56 19.9618 648.902 23.7105 647.773 25.5281C646.644 27.3836 645.108 27.7622 644.074 27.9137C643.541 27.9894 643.133 28.0273 641.974 28.0273C640.814 28.0273 640.406 27.9894 639.873 27.9137C638.839 27.7622 637.303 27.3836 636.174 25.5281C635.045 23.7105 634.387 19.9618 633.572 15.948C632.694 11.7448 632.255 9.09419 631.19 3.30066C631.19 3.30066 630.124 3.33853 629.654 3.37639C628.995 3.41426 628.494 3.48999 627.961 3.56572C627.961 3.56572 628.588 15.4936 628.87 20.5677C629.152 25.8689 629.685 34.8432 630.155 41.6213C630.155 41.6213 631.064 41.8106 632.569 41.8863C634.136 41.9999 634.857 41.9999 634.857 41.9999C635.516 39.0085 636.299 34.8811 637.209 33.1014C637.961 31.6625 639.089 31.511 639.748 31.3974C640.751 31.2459 641.629 31.2081 642.005 31.2081C642.412 31.2081 643.259 31.2081 644.262 31.3974C644.92 31.511 646.049 31.6625 646.801 33.1014C647.71 34.8811 648.525 39.0085 649.152 41.9999C649.152 41.9999 649.842 41.9999 651.409 41.8863C652.914 41.7727 653.823 41.6213 653.823 41.6213C654.293 34.8432 654.826 25.9068 655.109 20.5677C655.391 15.5314 656.018 3.56572 656.018 3.56572C655.485 3.48999 654.952 3.41426 654.325 3.37639C653.855 3.33853 652.789 3.30066 652.789 3.30066Z" fill="black"/>
<path d="M665.444 12.4981C664.823 6.13309 660.665 4.79644 657.033 4.15994C655.202 3.84168 651.944 3.58708 649.864 3.49161C648.033 3.36431 643.75 3.30066 642.447 3.30066C641.143 3.30066 636.861 3.36431 635.03 3.49161C632.95 3.58708 629.691 3.84168 627.86 4.15994C624.229 4.79644 620.071 6.13309 619.45 12.4981C619.264 14.2485 619.233 16.5081 619.264 18.9268C619.326 22.9685 619.667 25.6737 619.853 27.5832C619.977 28.888 620.505 32.7707 621.188 34.7756C622.119 37.5444 622.957 38.34 623.95 39.1675C625.75 40.6633 628.729 41.1406 629.35 41.268C632.702 41.8726 639.468 41.9999 642.478 41.9999C645.457 41.9999 652.254 41.9045 655.606 41.268C656.227 41.1406 659.206 40.6951 661.006 39.1675C661.999 38.34 662.837 37.5444 663.768 34.7756C664.451 32.7707 664.978 28.8562 665.103 27.5832C665.289 25.7055 665.63 22.9685 665.692 18.9268C665.661 16.4762 665.599 14.2167 665.444 12.4981ZM663.147 23.1913C662.775 28.2833 662.34 31.3385 661.72 33.5345C661.161 35.4758 660.478 36.7488 659.485 37.6717C657.809 39.2311 655.513 39.5494 654.147 39.7722C651.23 40.2177 646.295 40.3769 642.447 40.3769C638.568 40.3769 633.664 40.2177 630.747 39.7722C629.381 39.5494 627.085 39.2311 625.409 37.6717C624.415 36.7488 623.733 35.444 623.174 33.5345C622.553 31.3385 622.088 28.2833 621.746 23.1913C621.529 20.1361 621.56 15.1714 621.902 12.4981C622.367 8.48814 624.291 6.48316 628.419 5.75119C630.343 5.40111 632.95 5.14651 635.402 5.01921C637.388 4.89191 640.616 4.82826 642.447 4.82826C644.247 4.79644 647.506 4.89191 649.461 5.01921C651.913 5.14651 654.52 5.40111 656.444 5.75119C660.571 6.51499 662.496 8.51997 662.992 12.4981C663.334 15.1396 663.365 20.1043 663.147 23.1913Z" fill="black"/>
<path fill-rule="evenodd" clip-rule="evenodd" d="M847.154 27.1224C847.721 30.1105 846.185 32.5926 844.908 35.0017C843.49 37.2433 841.15 39.1698 838.337 38.8815C832.025 38.7851 825.856 37.7972 820.135 36.0375C819.875 35.9654 819.615 35.7962 819.473 35.5556C819.355 35.218 819.521 34.9046 819.757 34.6883C824.981 30.3745 831.198 28.3751 837.344 26.2778C839.637 25.6032 842.072 24.88 844.648 25.2177C845.711 25.3627 846.775 26.1101 847.154 27.1224ZM868.688 14.351C871.62 16.8088 874.267 20.1589 873.369 24.2071C871.903 30.1834 865.521 33.3643 860.439 35.388C857.673 36.3282 854.884 37.2927 851.858 37.5818C851.669 37.5575 851.362 37.6053 851.314 37.3162L851.385 36.9793C855.687 32.0387 858.949 26.4972 861.81 20.8821C863.133 18.3514 864.363 15.7495 865.497 13.1946C865.663 13.0019 865.829 12.9055 866.018 12.8335C867.081 12.929 867.838 13.7728 868.688 14.351ZM827.438 7.98923L827.344 8.3504C821.127 15.5552 817.038 23.9172 813.161 32.2306C812.405 32.9538 811.672 31.9893 810.986 31.6759C807.535 29.3631 804.414 25.6275 805.313 21.1938C806.754 15.411 812.593 12.3265 817.463 10.2308C820.347 9.12214 823.35 8.23055 826.517 7.72442C826.848 7.72361 827.273 7.67583 827.438 7.98923ZM858.288 9.14562C858.642 9.33836 859.068 9.41043 859.281 9.7716C859.47 10.1814 859.092 10.4462 858.879 10.7118C853.985 14.615 848.384 16.7845 842.662 18.6883C839.754 19.4115 836.823 20.7128 833.585 19.9897C832.828 19.7969 832.143 19.2908 831.718 18.5434C830.914 16.2783 832.001 13.917 832.946 11.9411C834.199 9.45901 836.422 6.54292 839.494 6.49515C846.113 6.44656 852.354 7.45881 858.288 9.14562ZM866.467 9.33835C871.478 12.1338 877.152 17.0493 876.561 23.6038C875.875 29.6765 870.32 33.9174 865.356 36.4723C850.865 43.533 830.513 43.7492 815.549 37.581C810.49 35.4366 804.816 31.7496 802.688 26.2065C801.057 21.6522 803.042 16.9051 806.376 13.7485C813.349 7.29037 822.238 5.07395 831.386 3.79608C841.315 2.5668 851.763 3.65113 860.651 6.75995C862.637 7.5074 864.599 8.32691 866.467 9.33835Z" fill="black"/>
<path fill-rule="evenodd" clip-rule="evenodd" d="M1025.24 5.41113C1026.07 5.43406 1025.98 6.01624 1025.84 6.21694C1023.42 10.0204 1017.68 16.7174 1013.5 24.0652C1012.81 25.2558 1012.3 26.1317 1012.3 27.4382C1012.3 29.2095 1013.39 31.3037 1015.6 32.2024C1017.05 32.7878 1017.96 32.8058 1019.53 32.8286C1031.16 33.1907 1035.82 32.8743 1046.22 32.5188C1046.82 32.5171 1047.38 32.1094 1047.58 31.8631C1049.59 29.7509 1050.75 25.9539 1050.75 22.6037C1050.75 15.1419 1045.41 8.42043 1037.09 5.18778L1035.75 6.91336C1043.05 9.95029 1046.82 16.016 1046.82 22.5124C1046.82 23.9739 1046.57 25.3895 1046.13 26.7416C1045.8 27.6845 1045.39 28.2259 1044.21 28.2438C1035.73 28.4265 1030.93 28.5602 1022.43 28.3351C1021.34 28.3124 1020.98 27.9095 1020.8 27.0352C1020.67 26.5166 1020.78 26.0859 1021.14 25.4352C1025.64 17.3911 1033.5 8.19693 1035.04 6.01624C1035.33 5.6134 1035.19 4.80118 1034.19 4.5321C1031.25 3.6562 1027.94 3.30066 1024.6 3.30066C1009.44 3.36262 998.752 11.9482 998.506 22.6037C999.113 35.3943 1010.16 41.9999 1024.6 41.9999C1033.43 41.9999 1041.53 38.8536 1046.27 33.8643L1041.89 34.0421C1037.85 37.6613 1031.38 39.5957 1024.68 39.5957C1012.48 39.5957 1002.55 33.4843 1002.55 22.5124C1002.55 13.0754 1012.48 5.38834 1024.68 5.38834L1025.24 5.41113Z" fill="black"/>
<path d="M937.555 3.30066L945.157 16.2939L937.555 29.2871L929.952 16.3874L937.555 3.30066ZM937.555 29.2871H952.389L959.807 41.9999H944.972L937.555 29.2871ZM937.555 29.2871H922.72L915.302 41.9999H930.137L937.555 29.2871Z" fill="black"/>
<path d="M1320.67 30.1966C1320.67 30.1966 1317.06 31.2421 1310.06 35.5429C1303.79 39.4051 1301.33 41.9999 1301.33 41.9999L1281.98 28.6225C1281.98 28.6225 1290.12 22.634 1296.92 27.2206L1306.05 33.4819L1307.16 32.7497L1281.98 15.1053C1281.98 15.1053 1285.6 14.0585 1292.59 9.76033C1298.87 5.8968 1301.33 3.30067 1301.33 3.30067L1320.68 16.6781C1320.68 16.6781 1312.54 22.6666 1305.73 18.08L1296.61 11.8174L1295.5 12.5483L1320.67 30.1966Z" fill="black"/>
<path d="M733.9 3.30066C717.604 3.30066 704.392 11.9634 704.392 22.6464C704.392 33.3333 717.604 41.9999 733.9 41.9999C750.195 41.9999 763.408 33.3372 763.408 22.6464C763.408 11.9555 750.195 3.30066 733.9 3.30066ZM733.9 33.6949C731.476 33.6949 729.498 28.8565 729.374 22.7682C730.832 22.8979 732.349 22.9687 733.9 22.9687C735.451 22.9687 736.967 22.8979 738.425 22.7682C738.301 28.8526 736.324 33.6949 733.9 33.6949ZM729.673 17.9337C730.332 13.6299 731.976 10.5759 733.9 10.5759C735.823 10.5759 737.468 13.6299 738.127 17.9337C736.773 18.0556 735.362 18.1224 733.9 18.1224C732.438 18.1224 731.026 18.0556 729.673 17.9337ZM733.9 6.09914C730.735 6.09914 728.036 10.9022 727.04 17.6075C721.04 16.6603 716.852 14.4985 716.852 11.987C716.852 8.59891 724.484 5.85153 733.9 5.85153C743.316 5.85153 750.948 8.59891 750.948 11.987C750.948 14.4985 746.759 16.6603 740.76 17.6075C739.763 10.9022 737.064 6.09914 733.9 6.09914ZM708.623 21.9232C708.623 18.6452 709.867 15.5676 712.035 12.9263C712.012 13.1111 711.996 13.2997 711.996 13.4884C711.996 17.6193 718.108 21.141 726.636 22.4381C726.628 22.7368 726.628 23.0394 726.628 23.3421C726.628 31.0418 728.757 37.5624 731.701 39.7753C718.768 38.9853 708.623 31.2934 708.623 21.9232ZM736.099 39.7753C739.042 37.5624 741.171 31.0418 741.171 23.3421C741.171 23.0355 741.167 22.7368 741.163 22.4381C749.687 21.141 755.803 17.6232 755.803 13.4884C755.803 13.2997 755.788 13.1111 755.764 12.9263C757.932 15.5755 759.177 18.6452 759.177 21.9232C759.177 31.2934 749.032 38.9853 736.099 39.7753Z" fill="#282830"/>
<path d="M530.245 3.30066C538.498 6.16891 546.706 9.16953 554.978 11.9799C555.271 12.0929 555.561 12.0929 555.853 11.9799C564.112 9.15574 572.315 6.17994 580.554 3.30066C577.631 7.95604 574.68 12.5949 571.694 17.2089C570.314 16.6159 568.892 16.1223 567.501 15.5541C568.307 14.1366 569.174 12.7521 569.991 11.34C567.33 12.6776 564.622 13.9214 561.981 15.2977C563.827 16.0009 565.677 16.6904 567.51 17.4323C568.531 17.8487 569.627 18.6513 569.696 19.8482C569.858 21.1776 568.95 22.2642 568.307 23.3287C564.327 29.5506 560.369 35.7891 556.37 41.9999C556.392 40.3617 556.204 38.707 556.397 37.0798C557.97 32.0907 559.524 27.0961 560.957 22.0656C561.238 21.3182 560.402 20.9183 559.864 20.6563C558.346 19.9861 556.924 19.0981 555.37 18.5244C553.794 19.2056 552.282 20.0303 550.736 20.7777C550.259 20.9983 549.585 21.434 549.858 22.0573C551.28 27.0906 552.85 32.0824 554.413 37.0743C554.587 38.7042 554.421 40.359 554.429 41.9999C550.493 35.8442 546.566 29.6803 542.635 23.5218C541.951 22.3883 540.957 21.23 541.128 19.8151C541.219 18.6265 542.309 17.8377 543.331 17.424C545.147 16.6849 546.991 16.0092 548.821 15.2949C546.185 13.9242 543.488 12.6693 540.83 11.3428C541.644 12.7548 542.511 14.1366 543.314 15.5569C541.915 16.114 540.499 16.6297 539.105 17.2006C536.129 12.5811 533.184 7.9395 530.245 3.30066Z" fill="black"/>
<path fill-rule="evenodd" clip-rule="evenodd" d="M448.708 20.9498H444.406L444.422 8.35791H450.038L450.008 3.30157H438.334L439.389 42H444.519L444.406 25.9522H448.708V20.9498Z" fill="black"/>
<path fill-rule="evenodd" clip-rule="evenodd" d="M458.089 3.30115H452.036L452.685 41.9996H457.982L458.089 3.30115Z" fill="black"/>
<path fill-rule="evenodd" clip-rule="evenodd" d="M480.932 41.9996H486.056L487.145 8.17666H491.294L491.263 3.30115H476.868V8.18226H481.052L480.932 41.9996Z" fill="black"/>
<path fill-rule="evenodd" clip-rule="evenodd" d="M466.077 21.2113L466.135 8.06669H469.093C470.434 10.9943 471.295 14.8657 471.971 21.2113H466.077ZM461.352 41.9983H461.871H465.694H466.255L466.31 25.9961H472.186C472.648 28.8206 472.761 37.5392 472.788 41.9983H473.274H477.112H477.545C477.994 22.2419 476.6 11.0748 472.748 3.30066H460.903L461.352 41.9983Z" fill="black"/>
<path d="M398.786 11.6895H358.673V4.08216C358.674 3.97977 358.654 3.87826 358.615 3.78347C358.575 3.68868 358.517 3.60249 358.444 3.52985C358.371 3.45722 358.283 3.39958 358.187 3.36024C358.091 3.32091 357.988 3.30066 357.884 3.30066H320.082C319.978 3.30066 319.875 3.32091 319.779 3.36024C319.683 3.39958 319.596 3.45722 319.523 3.52985C319.45 3.60249 319.392 3.68868 319.352 3.78347C319.313 3.87826 319.293 3.97977 319.294 4.08216V11.6895H290.544C290.107 11.6895 289.575 12.0357 289.354 12.471L278.799 32.8296C278.573 33.2649 278.744 33.6062 279.186 33.6062H319.289V41.2234C319.289 41.6488 319.64 41.9999 320.077 41.9999H357.879C358.316 41.9999 358.668 41.6537 358.668 41.2234V33.6062H387.418C387.855 33.6062 388.387 33.26 388.613 32.8296L399.163 12.471C399.389 12.0406 399.218 11.6895 398.781 11.6895M386.252 16.6159L380.003 28.6699H353.72V37.118H324.262V28.6699H291.735L297.989 16.6159H324.272V8.17269H353.73V16.6159H386.252Z" fill="black"/>
<g clip-path="url(#clip0_626_1181)">
<mask id="mask0_626_1181" style="mask-type:alpha" maskUnits="userSpaceOnUse" x="204" y="3" width="36" height="40">
<path d="M239.926 42.093H204.203V3.30658H239.926V42.093Z" fill="black"/>
</mask>
<g mask="url(#mask0_626_1181)">
<path fill-rule="evenodd" clip-rule="evenodd" d="M221.264 41.6331C216.27 39.3399 211.932 35.5818 209.049 31.0524C206.173 26.5362 204.662 21.3056 204.292 14.59C204.174 12.4475 204.174 9.77497 204.291 6.42122L204.344 4.8906L205.875 4.63747C211.26 3.7506 216.707 3.3006 222.065 3.3006C227.422 3.3006 232.869 3.7506 238.254 4.63747L239.784 4.8906L239.838 6.42122C239.956 9.77559 239.956 12.4481 239.837 14.59C239.467 21.3056 237.956 26.5362 235.08 31.0524C232.198 35.5818 227.858 39.3399 222.864 41.6331L222.065 41.9999L221.264 41.6331Z" fill="black"/>
</g>
<path fill-rule="evenodd" clip-rule="evenodd" d="M222.065 4.40405C216.664 4.40405 211.058 4.85765 205.368 5.82356C205.283 8.06708 205.186 11.5349 205.349 14.4776C205.711 21.0387 207.179 26.1311 209.97 30.5042C212.752 34.8644 217.061 38.6136 222.065 40.8403C227.068 38.6136 231.377 34.8644 234.159 30.5042C236.95 26.1311 238.418 21.0387 238.781 14.4776C238.943 11.5349 238.846 8.06708 238.761 5.82356C233.071 4.85765 227.466 4.40405 222.065 4.40405ZM222.065 5.03612C227.389 5.03612 232.794 5.48143 238.139 6.36031C238.256 9.68866 238.256 12.3369 238.14 14.4435C237.783 20.8927 236.346 25.8896 233.616 30.1681C230.886 34.4462 226.791 37.9801 222.065 40.1452C217.338 37.9801 213.244 34.4462 210.514 30.1681C207.783 25.8896 206.345 20.8927 205.99 14.4435C205.873 12.3369 205.873 9.68866 205.99 6.36031C211.335 5.48143 216.74 5.03612 222.065 5.03612Z" fill="white"/>
<path fill-rule="evenodd" clip-rule="evenodd" d="M210.894 8.04659C210.842 8.04532 210.786 8.04775 210.727 8.05375C209.936 8.13515 209.147 8.22475 208.358 8.32303V10.6228C208.494 10.6055 208.632 10.589 208.768 10.5725V9.86098C209.42 9.78221 210.074 9.7094 210.727 9.64226C211.199 9.59387 211.463 9.39927 211.463 8.91763V8.65731C211.463 8.2454 211.261 8.05547 210.894 8.04659ZM210.849 8.41228C210.955 8.4014 211.062 8.48097 211.062 8.58638V9.0522C211.062 9.15235 210.955 9.2481 210.849 9.25935C210.155 9.3295 209.461 9.40679 208.768 9.49006V8.6434C209.461 8.55975 210.155 8.4828 210.849 8.41228Z" fill="white"/>
<path fill-rule="evenodd" clip-rule="evenodd" d="M221.307 7.47629C222.046 7.47104 222.786 7.47366 223.525 7.48341V7.85402C222.735 7.84389 221.944 7.84164 221.154 7.84802C221.047 7.84915 220.94 7.9403 220.94 8.0457V9.19804C220.94 9.30344 221.047 9.40772 221.154 9.4066C221.863 9.40059 222.571 9.40172 223.28 9.4096V8.78805C222.869 8.78355 222.457 8.7813 222.046 8.78167V8.41068C222.592 8.41068 223.137 8.41481 223.683 8.42269V9.78546C222.916 9.77421 222.15 9.77121 221.384 9.77571C220.822 9.77946 220.537 9.68418 220.537 9.14778V8.14549C220.537 7.64471 220.792 7.48004 221.307 7.47629V7.47629Z" fill="white"/>
<path fill-rule="evenodd" clip-rule="evenodd" d="M229.315 7.71674C228.873 7.71798 228.674 7.85564 228.674 8.30694V9.3339C228.674 9.88043 228.959 9.9871 229.519 10.0242C230.033 10.0587 230.547 10.0969 231.061 10.1386C231.615 10.1836 231.905 10.0905 231.905 9.57397V8.54702C231.905 8.02074 231.569 7.88004 231.061 7.83878C230.547 7.79677 230.033 7.75893 229.519 7.72404C229.446 7.71917 229.378 7.71657 229.315 7.71674ZM229.29 8.07995C229.957 8.12309 230.623 8.17264 231.29 8.22816C231.396 8.23716 231.503 8.33649 231.503 8.45652V9.59436C231.503 9.69939 231.396 9.79578 231.29 9.78678C230.623 9.73126 229.957 9.68167 229.29 9.63816C229.168 9.62991 229.076 9.51933 229.076 9.41392V8.2765C229.076 8.15609 229.168 8.0717 229.29 8.07995Z" fill="white"/>
<path fill-rule="evenodd" clip-rule="evenodd" d="M219.528 7.50269V9.16629C219.528 9.69257 219.247 9.80811 218.682 9.82536C218.189 9.84036 217.697 9.85837 217.204 9.88013C216.679 9.90338 216.358 9.8051 216.358 9.28408V7.62047L216.761 7.60022V9.33397C216.761 9.43938 216.852 9.52527 216.974 9.51965C217.62 9.49001 218.265 9.46601 218.911 9.44763C219.034 9.44425 219.115 9.35198 219.115 9.24657V7.51282C219.253 7.50906 219.39 7.50569 219.528 7.50269V7.50269Z" fill="white"/>
<path fill-rule="evenodd" clip-rule="evenodd" d="M224.69 7.5047C225.682 7.52796 226.673 7.56472 227.665 7.61498V7.98559C226.808 7.94245 225.95 7.90907 225.092 7.88581V8.45185C225.855 8.47286 226.618 8.50136 227.38 8.53775V8.90873C226.618 8.87235 225.855 8.84346 225.092 8.82283V9.44401C225.95 9.46727 226.808 9.50065 227.665 9.54417V9.91478C226.673 9.86489 225.682 9.82812 224.69 9.80449V7.5047Z" fill="white"/>
<path fill-rule="evenodd" clip-rule="evenodd" d="M215.349 7.67694V8.04755C214.492 8.09969 213.636 8.16158 212.781 8.23323V8.79964C213.542 8.7355 214.303 8.67961 215.065 8.63159V9.00258C214.303 9.05059 213.542 9.10648 212.781 9.17025V9.79181C213.636 9.71978 214.492 9.65789 215.349 9.60613V9.97673C214.358 10.0368 213.368 10.1103 212.379 10.1969V7.89675C213.368 7.8101 214.358 7.73696 215.349 7.67694Z" fill="white"/>
<path fill-rule="evenodd" clip-rule="evenodd" d="M232.65 7.97919C233.692 8.07897 234.733 8.19375 235.771 8.32279V8.69377C235.322 8.63788 234.872 8.58461 234.422 8.53435V10.4635C234.285 10.4482 234.149 10.4331 234.011 10.4181V8.48896C233.558 8.43982 233.104 8.39368 232.65 8.35017V7.97919Z" fill="white"/>
<path fill-rule="evenodd" clip-rule="evenodd" d="M218.871 12.3803C220.783 12.2148 223.371 12.1698 225.842 12.354C225.983 12.3645 226.12 12.3971 226.25 12.4512C227.059 12.7865 228.496 13.5202 230.094 14.4201C230.164 14.4599 230.231 14.5064 230.292 14.5593C230.715 14.9265 231.787 16.0068 231.787 16.0068L231.453 15.9415C231.406 15.9325 231.362 15.9145 231.323 15.8883C230.646 15.4408 229.658 14.8582 228.83 14.4475C228.732 14.3991 228.626 14.368 228.517 14.3567C228.114 14.3143 227.57 14.2772 227.213 14.2629C227.038 14.2558 226.918 14.2269 226.746 14.141C226.418 13.9771 225.623 13.6219 225.226 13.473C225.057 13.4092 224.97 13.3942 224.804 13.3968C224.124 13.4066 222.573 13.4553 221.781 13.5037C221.753 13.5052 221.727 13.5041 221.701 13.5L221.323 13.4418C222.393 13.2603 225.039 13.0281 226.135 12.9714L225.689 12.8248C225.603 12.7966 225.513 12.7816 225.422 12.7794C225.184 12.7738 224.656 12.7634 223.969 12.7625L223.735 12.7625C222.696 12.7645 221.358 12.7896 220.125 12.881C220.017 12.8889 219.912 12.9144 219.813 12.9575C219.314 13.173 218.099 13.8217 216.881 14.488L216.61 14.6362C216.295 14.809 215.983 14.981 215.688 15.1448C215.688 15.1448 215.839 14.9524 215.869 14.9149C215.895 14.8822 215.903 14.8762 215.938 14.8537C215.987 14.8221 216.154 14.7137 216.322 14.6037L216.447 14.522C216.548 14.4557 216.639 14.3961 216.69 14.3616C216.715 14.3447 216.731 14.3327 216.762 14.3094C217.129 14.0371 217.708 13.557 218.053 13.2595C218.132 13.1924 218.198 13.1143 218.252 13.0273C218.364 12.8495 218.486 12.6567 218.561 12.5498C218.625 12.4571 218.734 12.3923 218.871 12.3802V12.3803Z" fill="white"/>
<path fill-rule="evenodd" clip-rule="evenodd" d="M219.797 14.1998C219.841 14.1994 219.868 14.2459 219.846 14.283L218.922 15.8499C218.871 15.9422 218.785 16.0108 218.683 16.0412L216.95 16.575C216.749 16.635 216.579 16.6672 216.369 16.683C215.985 16.7115 214.843 16.7468 214.843 16.7468L214.868 16.6935C214.88 16.6684 214.901 16.6485 214.927 16.6376L215.467 16.4118C215.508 16.3949 215.543 16.369 215.57 16.3356L216.404 15.3243C216.449 15.2703 216.507 15.2186 216.569 15.1863C217.12 14.9009 218.101 14.4721 218.787 14.2463C218.852 14.2249 218.939 14.2114 219.007 14.2107L219.797 14.1998Z" fill="white"/>
<path fill-rule="evenodd" clip-rule="evenodd" d="M215.484 17.0149C215.52 17.0119 215.555 17.0318 215.569 17.0644C215.616 17.1736 215.604 17.2955 215.557 17.3997C215.54 17.4421 215.484 17.4834 215.439 17.4931L215.06 17.576C215.037 17.5809 215.016 17.5629 215.018 17.54L215.053 17.1019C215.056 17.0723 215.079 17.0486 215.109 17.0464L215.484 17.0149Z" fill="white"/>
<path fill-rule="evenodd" clip-rule="evenodd" d="M223.89 15.1648C223.946 15.1551 224.005 15.163 224.057 15.1873L224.453 15.3738C224.492 15.3922 224.52 15.427 224.53 15.4691C224.584 15.6919 224.65 15.9871 224.694 16.238C224.712 16.3423 224.692 16.4488 224.639 16.5407C224.475 16.8209 224.138 17.3251 223.95 17.5959C223.908 17.6567 223.903 17.7302 223.916 17.8026C224.002 18.267 224.357 19.8886 224.357 19.8886L224.133 19.6879C224.089 19.6474 224.06 19.6046 224.04 19.5487C223.881 19.09 223.583 18.1316 223.446 17.6653C223.424 17.5884 223.441 17.5063 223.492 17.4451C223.726 17.166 224.066 16.7197 224.265 16.4368C224.32 16.3573 224.339 16.2695 224.306 16.2039C224.26 16.1116 224.183 15.9713 224.109 15.8442C224.09 15.8089 224.056 15.7826 224.017 15.7699L223.749 15.6851C223.702 15.6705 223.652 15.6712 223.605 15.6877C223.02 15.8967 222.233 16.1979 221.751 16.3944C221.681 16.4233 221.652 16.4256 221.567 16.4128C221.427 16.3926 221.021 16.3209 220.822 16.2842C220.786 16.2774 220.768 16.2377 220.787 16.2065L221.023 15.8037C221.055 15.7493 221.108 15.7106 221.17 15.6967C221.93 15.5264 222.934 15.3306 223.89 15.1648V15.1648Z" fill="white"/>
<path fill-rule="evenodd" clip-rule="evenodd" d="M215.631 15.587L215.475 15.7753C215.467 15.7836 215.458 15.7915 215.45 15.8001C215.313 15.8995 214.737 16.3335 214.581 16.455C214.537 16.4896 214.52 16.5196 214.509 16.574C214.474 16.766 214.416 17.131 214.399 17.3332C214.394 17.3924 214.368 17.4217 214.307 17.4461C214.04 17.553 213.723 17.6655 213.467 17.7664C213.412 17.7878 213.397 17.7961 213.365 17.8204C213.339 17.8399 212.999 18.1389 212.999 18.1389C212.999 18.1389 213.738 17.9596 214.01 17.8992C214.074 17.885 214.102 17.8887 214.162 17.9165C214.218 17.942 214.311 17.9784 214.36 17.996C214.436 18.0234 214.476 18.0222 214.559 18.0042C214.865 17.9371 215.379 17.8171 215.652 17.7469C215.794 17.7105 215.872 17.6726 215.992 17.5897C216.123 17.5001 216.455 17.2552 216.455 17.2552C216.455 17.2552 216.449 17.2983 216.445 17.3223C216.441 17.3429 216.433 17.3546 216.42 17.3707C216.352 17.4506 216.234 17.5807 216.176 17.6404C216.041 17.7773 215.961 17.8261 215.792 17.8955C215.015 18.2143 213.687 18.7094 212.691 19.0489C212.626 19.0714 212.598 19.0898 212.549 19.1386C212.497 19.1911 212.426 19.2676 212.426 19.2676C212.426 19.2676 213.239 19.3258 213.487 19.3539C213.567 19.3629 213.625 19.3888 213.686 19.4409C213.89 19.6135 214.564 20.2973 214.766 20.5347C214.766 20.5347 212.848 20.8487 211.959 21.0659C211.85 21.0925 211.795 21.1612 211.77 21.2478C211.697 21.5021 211.523 22.3199 211.523 22.3199C211.523 22.3199 211.462 22.3004 211.375 22.2516C211.316 22.2182 211.286 22.1905 211.222 22.1229C211.011 21.9043 210.666 21.4856 210.5 21.2429C210.451 21.1713 210.43 21.0801 210.491 21.007C210.672 20.7887 211.033 20.3903 211.233 20.1855C211.254 20.1634 211.281 20.1247 211.31 20.0692C211.377 19.9379 211.466 19.6052 211.496 19.485L211.506 19.4462L211.508 19.4409C211.508 19.4409 211.506 19.4421 211.502 19.4442L211.466 19.4668C211.416 19.4974 211.337 19.5468 211.302 19.5681C211.251 19.6003 211.237 19.6142 211.215 19.6585C211.183 19.7252 211.126 19.8306 211.083 19.9038C211.069 19.9278 211.031 19.9649 211.011 19.9803C210.756 20.172 210.475 20.3779 210.275 20.5167C210.261 20.5261 210.243 20.522 210.232 20.5107C210.206 20.4856 210.099 20.3659 210.08 20.3378C210.064 20.3142 210.057 20.292 210.057 20.2635C210.056 20.2136 210.061 20.1259 210.066 20.0606C210.072 19.9833 210.095 19.9466 210.19 19.849C210.297 19.7399 210.414 19.6251 210.537 19.5073C210.837 19.2582 211.596 18.6521 212.951 17.7C212.977 17.682 213 17.661 213.018 17.6359C213.161 17.4468 213.565 16.9307 213.665 16.808C213.679 16.7908 213.695 16.7746 213.712 16.7608C213.872 16.6366 213.951 16.583 214.113 16.4824C214.49 16.2484 215.221 15.8215 215.631 15.587L215.631 15.587Z" fill="white"/>
<path fill-rule="evenodd" clip-rule="evenodd" d="M212.568 22.0197L212.4 23.1559L211.832 22.4987C211.935 22.2777 212.238 22.0692 212.568 22.0197Z" fill="white"/>
<path fill-rule="evenodd" clip-rule="evenodd" d="M216.313 22.6224C216.03 23.0816 215.691 23.5692 215.435 23.8738C215.402 23.9136 215.357 23.9443 215.306 23.9631C215.026 24.0662 214.56 24.2215 214.216 24.3247L216.313 22.6224Z" fill="white"/>
<path fill-rule="evenodd" clip-rule="evenodd" d="M228.404 15.2458C228.554 15.1914 228.719 15.1951 228.866 15.2563C230.01 15.7289 231.933 16.8407 233.002 17.6239C233.105 17.6997 233.146 17.7519 233.173 17.8741C233.424 18.998 233.519 20.7351 233.361 22.1977C233.35 22.3027 233.328 22.3657 233.273 22.4779C232.596 23.8414 231.833 25.1246 231.031 26.1145L231.033 26.0983C231.043 25.9929 231.101 25.3986 231.104 25.077C231.104 25.0406 231.121 25.0072 231.151 24.9851C231.3 24.8711 231.504 24.709 231.62 24.6104C231.676 24.5623 231.708 24.5263 231.737 24.4798C232.064 23.9599 232.648 22.8713 232.884 22.2164C232.941 22.0566 232.964 21.8874 232.95 21.7183C232.874 20.8056 232.729 19.5411 232.512 18.7159C232.475 18.5752 232.381 18.4563 232.249 18.3899C232.062 18.2954 231.695 18.1307 230.86 17.801C230.744 17.7552 230.636 17.6918 230.541 17.6131C229.993 17.1599 229.137 16.4806 228.604 16.0898C228.448 15.9753 228.249 15.9337 228.059 15.9761C227.671 16.0627 227.177 16.1835 226.899 16.2578C226.805 16.2829 226.767 16.2852 226.67 16.2739C226.619 16.2681 226.553 16.2618 226.484 16.2556L226.38 16.2466C226.258 16.2364 226.145 16.2277 226.1 16.2244L226.08 16.2229C226.986 15.8039 227.858 15.4423 228.404 15.2458L228.404 15.2458Z" fill="white"/>
<path fill-rule="evenodd" clip-rule="evenodd" d="M214.911 21.011C215.001 20.9825 215.097 20.9791 215.188 21.0009C215.6 21.0984 216.473 21.3088 217.132 21.475C217.225 21.4983 217.34 21.5834 217.389 21.6641L217.533 21.8993C217.583 21.9818 217.586 22.0831 217.542 22.1686C217.422 22.3974 217.251 22.7072 217.07 23.0266L216.934 23.2669C216.682 23.7066 216.431 24.1308 216.289 24.354C216.195 24.5014 216.143 24.5667 215.976 24.6248C215.328 24.8495 214.522 25.1181 214.043 25.2707C213.945 25.3019 213.912 25.3604 213.931 25.4673C213.965 25.662 214.076 26.3229 214.118 26.5157C214.134 26.587 214.192 26.6436 214.299 26.6234C214.582 26.5705 215.336 26.3889 215.336 26.3889C215.336 26.3889 215.113 26.5911 214.98 26.7104C214.956 26.7329 214.928 26.7494 214.896 26.7596C214.691 26.8271 214.19 26.9655 214.033 26.9992C213.912 27.0251 213.834 26.9779 213.803 26.8421C213.803 26.8421 213.589 25.9463 213.512 25.6417C213.499 25.5952 213.487 25.5551 213.472 25.5093C213.414 25.333 213.275 24.9864 213.197 24.8049C213.188 24.7839 213.183 24.7613 213.184 24.7381C213.186 24.5307 213.225 24.0678 213.225 24.0678C213.225 24.0678 213.686 24.4935 213.909 24.6473C213.96 24.6822 213.99 24.6893 214.051 24.6739C214.358 24.5963 215.063 24.3667 215.45 24.2242C215.539 24.1916 215.616 24.1368 215.676 24.0651C216.076 23.5891 216.579 22.8487 216.868 22.2901C216.908 22.2132 216.916 22.1251 216.891 22.0426L216.828 21.84C216.81 21.7807 216.746 21.714 216.688 21.6918C216.006 21.4364 215.468 21.2466 214.836 21.0346L214.911 21.011Z" fill="white"/>
<path fill-rule="evenodd" clip-rule="evenodd" d="M227.136 18.7198L227.372 18.8208C227.442 18.8504 227.505 18.8939 227.558 18.9479C229.004 20.4333 230.16 21.9735 230.391 22.3794C230.436 22.4574 230.466 22.5355 230.477 22.6247C230.737 24.791 230.514 27.0859 229.983 29.0822C229.935 29.2623 229.882 29.3546 229.706 29.4847C229.139 29.9043 228.293 30.5732 227.452 31.2552L227.187 31.4708C226.174 32.2966 225.212 33.105 224.803 33.477C224.701 33.5708 224.611 33.6766 224.538 33.794C224.347 34.1004 224.054 34.6279 223.911 34.8896L223.871 34.9629C223.842 35.0157 223.825 35.0465 223.825 35.0465C223.635 34.6372 223.219 33.6387 223.077 33.2351C223.031 33.1034 223.022 33.0344 223.071 32.8581C223.304 32.0212 224.402 29.5883 224.616 29.1483L224.616 29.3283C224.616 29.3546 224.612 29.3804 224.603 29.4052C224.507 29.6929 223.917 31.6105 223.797 32.4421C223.77 32.627 223.772 32.6769 223.797 32.8585C223.849 33.2467 224.085 33.9587 224.085 33.9587C224.085 33.9587 224.225 33.6713 224.355 33.477C224.419 33.3817 224.457 33.336 224.562 33.2339C225.09 32.7198 225.991 31.9251 226.929 31.126L227.261 30.8442C227.982 30.2352 228.701 29.6426 229.269 29.1899C229.417 29.0721 229.472 28.9933 229.505 28.7698C229.668 27.6684 229.715 25.6916 229.617 24.2531C229.599 23.9815 229.509 23.7189 229.354 23.4935C228.997 22.9747 228.571 22.4837 227.924 21.8531C227.832 21.7627 227.769 21.6472 227.746 21.5212C227.557 20.5309 227.136 18.7198 227.136 18.7198H227.136Z" fill="white"/>
<path fill-rule="evenodd" clip-rule="evenodd" d="M219.525 19.4408C219.525 19.4408 219.656 19.8597 219.783 20.3147L219.827 20.4761C219.907 20.7725 219.979 21.0652 220.005 21.2503C220.029 21.4285 220.025 21.4765 219.961 21.6472C219.805 22.056 219.517 22.7136 219.211 23.3859L219.079 23.6742C218.703 24.4898 218.322 25.2778 218.137 25.6188C218.046 25.7869 217.961 25.8964 217.789 26.0678C217.398 26.4598 216.649 27.2007 216.185 27.6152C216.017 27.766 215.972 27.8946 215.937 28.0897C215.882 28.4029 215.827 28.9374 215.812 29.2135C215.799 29.4562 215.839 29.5699 215.976 29.8103C216.793 31.2451 219.521 34.5461 220.298 35.2393C220.355 35.2895 220.396 35.3233 220.515 35.4009C220.629 35.476 221.002 35.7138 221.002 35.7138C221.016 35.7239 221.029 35.7374 221.038 35.7528L221.173 35.9865C221.173 35.9865 221.161 35.9803 221.138 35.9692L221.08 35.9407C221.033 35.9178 220.971 35.8874 220.9 35.8524L220.727 35.7671C220.461 35.636 220.145 35.4782 219.978 35.3901C219.91 35.3537 219.845 35.3109 219.786 35.2618C218.876 34.5176 216.087 31.3047 215.267 29.9634C215.062 29.6284 215.041 29.52 215.068 29.203C215.12 28.613 215.2 27.871 215.269 27.5458C215.312 27.3496 215.355 27.2344 215.508 27.0611C216.021 26.4794 216.648 25.7115 217.258 24.9235L217.472 24.6448C218.397 23.436 219.248 22.2261 219.567 21.6097C219.639 21.4694 219.645 21.4206 219.647 21.2882C219.651 20.9041 219.527 20.1561 219.494 19.9671C219.489 19.9374 219.487 19.9074 219.49 19.8774L219.525 19.4408Z" fill="white"/>
<path fill-rule="evenodd" clip-rule="evenodd" d="M222.018 24.1953C222.018 24.1953 222.123 24.8094 222.155 24.9875C222.173 25.0884 222.177 25.1155 222.151 25.2145C222.067 25.5329 221.679 27.2114 221.368 28.9295L221.32 29.2009C221.193 29.9246 221.083 30.643 221.019 31.2575C220.983 31.6067 220.995 31.6904 221.089 32.0002C221.354 32.8757 222.336 35.1631 222.525 35.5802C222.546 35.6264 222.558 35.6748 222.564 35.7247L222.635 36.2641C222.321 35.7963 220.611 32.7028 219.939 30.9897C219.86 30.7879 219.845 30.6884 219.932 30.3175C220.399 28.3493 221.663 25.0048 222.018 24.1953H222.018Z" fill="white"/>
</g>
<path d="M135.775 3.41487C144.169 3.12729 152.571 3.41283 160.95 3.93599C161.832 4.01043 162.725 4.00432 163.594 4.18482C164.064 4.29496 164.572 4.46934 164.846 4.8844C165.097 5.33617 165.102 5.86341 165.167 6.36107C165.367 8.80552 165.425 11.2602 165.613 13.7046C165.25 13.7475 164.887 13.6934 164.524 13.6822C158.062 13.3569 151.594 13.0866 145.121 13.0785C141.769 13.0877 138.412 13.056 135.063 13.2141C134.251 13.3304 133.332 13.5945 132.863 14.2982C135.398 14.7356 137.927 15.2078 140.46 15.6535C148.855 17.1811 157.257 18.6751 165.653 20.2007C165.646 21.7488 165.649 23.2968 165.652 24.8449C160.931 24.0852 156.218 23.2652 151.5 22.481C141.349 20.78 131.202 19.0555 121.048 17.3708C121.068 15.6524 121.144 13.9351 121.18 12.2157C121.244 10.8543 121.205 9.47451 121.521 8.13756C121.734 7.19424 122.129 6.24583 122.864 5.57174C124.133 4.35003 125.969 4.00636 127.677 3.83401C130.37 3.5913 133.074 3.51175 135.775 3.41487ZM121 19.6317C135.542 22.2403 150.08 24.8928 164.62 27.5168C164.938 27.5922 165.277 27.5984 165.583 27.7116L165.619 27.7931C165.54 30.1122 165.494 32.4332 165.408 34.7522C165.352 36.183 165.197 37.6801 164.439 38.9405C163.628 40.2438 162.115 40.9648 160.618 41.2371C158.412 41.6399 156.159 41.6665 153.925 41.7858C144.311 42.21 134.678 41.9755 125.08 41.333C124.314 41.281 123.533 41.2677 122.788 41.0607C122.402 40.9424 122.004 40.7517 121.786 40.405C121.552 39.9501 121.537 39.4311 121.479 38.9354C121.274 36.2299 121.165 33.5193 121.019 30.8107C125.97 31.1167 130.929 31.288 135.89 31.3951C140.679 31.4705 145.468 31.4695 150.258 31.5154C151.291 31.5572 152.408 31.3655 153.192 30.6598C153.306 30.5323 153.492 30.414 153.473 30.2233C151.314 29.9082 149.168 29.5166 147.013 29.1719C138.345 27.7309 129.673 26.3032 121.005 24.8541C120.995 23.1133 121.007 21.3725 121 19.6317Z" fill="#19191B"/>
<g clip-path="url(#clip1_626_1181)">
<path d="M-12.2618 3C-22.6805 3 -31.1277 11.6638 -31.1277 22.3496C-31.1277 33.0355 -22.6805 41.6993 -12.2618 41.6993C-1.8431 41.6993 6.60411 33.0355 6.60411 22.3496C6.60411 11.6638 -1.8431 3 -12.2618 3ZM-12.2618 4.25773C-2.5207 4.25773 5.37625 12.3572 5.37625 22.3496C5.37625 32.3405 -2.51913 40.4399 -12.2618 40.4399C-22.0045 40.4399 -29.8998 32.3405 -29.8998 22.3496C-29.8998 12.3588 -22.0029 4.25773 -12.2618 4.25773ZM-13.3277 5.27358C-13.8465 5.29616 -14.3653 5.34131 -14.8873 5.39935L-15.0555 10.1465C-14.6853 10.0822 -14.313 10.0317 -13.9393 9.99489L-13.8292 6.7893L-13.8497 6.5684L-13.7821 6.77802L-12.7382 9.17898H-11.7854L-10.7415 6.77963L-10.6786 6.5684L-10.6943 6.7893L-10.5843 9.99489C-10.2196 10.0304 -9.84067 10.082 -9.46807 10.1465L-9.63943 5.39935C-10.1578 5.33945 -10.6779 5.2975 -11.199 5.27358L-12.2256 7.89385L-12.2618 8.08734L-12.2979 7.89385L-13.3277 5.27358ZM-2.80054 8.21473L-5.22638 12.1298C-4.91981 12.3717 -4.51577 12.728 -4.25636 12.9715L-1.97202 11.7557L-1.82738 11.6445L-1.93586 11.796L-3.11812 14.1389C-2.86186 14.4211 -2.4924 14.8775 -2.28487 15.1548L1.53547 12.6651C1.30118 12.3543 1.06005 12.0489 0.812277 11.7493L-1.60728 13.3843L-1.77235 13.5327L-1.64972 13.3472L-0.580656 11.1607L-1.33529 10.3867L-3.46714 11.4832L-3.64794 11.609L-3.50487 11.4381L-1.90441 8.95646C-2.1874 8.71137 -2.45624 8.48723 -2.80054 8.21473ZM-22.4808 9.1032C-23.0468 9.16286 -23.4839 9.55953 -24.6708 10.9172C-25.0824 11.3956 -25.4793 11.8871 -25.861 12.391L-22.6003 15.5628C-21.5202 14.3373 -21.0816 13.8826 -20.2295 12.9618C-19.6273 12.3088 -19.2862 11.559 -19.8899 10.8382C-20.2169 10.448 -20.7672 10.3625 -21.2262 10.556L-21.2703 10.5722L-21.2545 10.5302C-21.1978 10.3163 -21.2038 10.0899 -21.2718 9.87945C-21.3397 9.66897 -21.4666 9.48367 -21.6366 9.34668C-21.7547 9.25114 -21.8902 9.18057 -22.0351 9.13905C-22.18 9.09753 -22.3315 9.08428 -22.4808 9.1032ZM-22.4714 10.0949C-22.2576 10.0352 -22.0359 10.1916 -21.9872 10.4174C-21.9368 10.6431 -22.0752 10.856 -22.2293 11.0333C-22.5751 11.4364 -23.8502 12.8038 -23.8502 12.8038L-24.4822 12.1862C-23.8266 11.3639 -23.1285 10.6157 -22.8125 10.319C-22.7177 10.2176 -22.6008 10.1408 -22.4714 10.0949ZM-12.2618 10.8737C-15.0313 10.8724 -17.7028 11.9251 -19.759 13.828C-21.8153 15.7308 -23.11 18.3485 -23.3927 21.1741V21.1774C-23.5703 22.9701 -23.3342 24.7806 -22.7033 26.4624C-22.0724 28.1441 -21.0645 29.6501 -19.761 30.8583C-18.4576 32.0666 -16.8952 32.9434 -15.2003 33.4176C-13.5053 33.8919 -11.7253 33.9505 -10.0042 33.5885C-7.48136 33.0567 -5.21494 31.6478 -3.5879 29.6001C-1.96087 27.5523 -1.07299 24.9912 -1.07431 22.3496C-1.07723 19.3075 -2.25689 16.3909 -4.35436 14.2399C-6.45183 12.089 -9.29572 10.8795 -12.2618 10.8769V10.8737ZM-20.9668 11.2639C-20.8929 11.2639 -20.8159 11.2849 -20.7467 11.3332C-20.6084 11.4284 -20.5455 11.5912 -20.5801 11.7525C-20.621 11.9444 -20.7766 12.125 -20.9024 12.2653L-22.5453 14.0712L-23.2056 13.4262C-23.2056 13.4262 -21.9683 12.0847 -21.5627 11.6541C-21.4023 11.4832 -21.2986 11.38 -21.1885 11.3236C-21.1203 11.2873 -21.0436 11.2669 -20.9668 11.2639ZM-12.2618 12.3813C-10.9851 12.3799 -9.72057 12.6367 -8.54075 13.1371C-7.36092 13.6375 -6.28892 14.3717 -5.38613 15.2977C-4.48334 16.2236 -3.7675 17.3231 -3.27958 18.5332C-2.79166 19.7433 -2.54126 21.0402 -2.54271 22.3496H-12.2618V32.3179C-13.5385 32.3194 -14.803 32.0626 -15.9828 31.5622C-17.1627 31.0617 -18.2347 30.3275 -19.1374 29.4016C-20.0402 28.4757 -20.7561 27.3762 -21.244 26.1661C-21.7319 24.956 -21.9823 23.6591 -21.9809 22.3496H-12.2618V12.3813Z" fill="black"/>
</g>
<g clip-path="url(#clip2_626_1181)">
<path d="M71.4484 39.8055C61.8608 39.8055 54.006 31.9121 54.006 22.3246C54.006 20.1683 54.391 18.1276 55.1226 16.2024L65.3262 36.7251C65.4417 36.9947 65.6343 37.2257 65.9423 37.2257C66.2503 37.2257 66.4428 36.9947 66.5584 36.7251L71.2559 26.2135C71.2944 26.098 71.3714 25.9825 71.4869 25.9825C71.6024 25.9825 71.6409 26.098 71.7179 26.2135L76.4154 36.7251C76.531 36.9947 76.7235 37.2257 77.0315 37.2257C77.3395 37.2257 77.5321 36.9947 77.6476 36.7251L87.8512 16.2024C88.5828 18.1276 88.9678 20.1683 88.9678 22.3246C88.8908 31.9121 81.0359 39.8055 71.4484 39.8055ZM71.4484 18.3586C71.3329 18.3586 71.2944 18.2431 71.2174 18.1276L65.7498 5.80625C67.521 5.15168 69.4462 4.80514 71.4484 4.80514C73.4506 4.80514 75.3758 5.15168 77.147 5.80625L71.6794 18.1276C71.6024 18.2816 71.5639 18.3586 71.4484 18.3586ZM65.8653 31.0265C65.7498 31.0265 65.7113 30.911 65.6343 30.7955L56.7783 12.9295C58.357 10.5038 60.4747 8.46304 63.0545 7.03838L69.4462 21.2464C69.5232 21.4775 69.7157 21.5545 69.9082 21.5545H72.9886C73.2196 21.5545 73.3736 21.516 73.4891 21.2464L79.8808 7.03838C82.4221 8.46304 84.5783 10.5038 86.157 12.9295L77.224 30.7955C77.1855 30.911 77.1085 31.0265 76.993 31.0265C76.8775 31.0265 76.839 30.911 76.762 30.7955L73.4121 23.1716C73.2966 22.9021 73.1426 22.8636 72.9116 22.8636H69.8312C69.6002 22.8636 69.4462 22.9021 69.3307 23.1716L66.0963 30.7955C66.0578 30.911 65.9808 31.0265 65.8653 31.0265ZM71.4484 41.5767C82.1141 41.5767 90.7005 32.9902 90.7005 22.3246C90.7005 11.6589 82.1141 3.07245 71.4484 3.07245C60.7827 3.07245 52.1963 11.6589 52.1963 22.3246C52.1963 32.9902 60.7827 41.5767 71.4484 41.5767Z" fill="black"/>
</g>
<path fill-rule="evenodd" clip-rule="evenodd" d="M1464.5 6.534C1470.66 9.77409 1474.87 16.2339 1474.87 23.68C1474.87 31.1262 1470.66 37.6064 1464.5 40.8266V38.6126C1466.86 37.2031 1468.85 35.2309 1470.3 32.8967L1464.5 30.5426V26.9604L1470.86 31.9312C1472.19 29.4758 1472.94 26.6783 1472.94 23.6795C1472.94 17.3603 1469.55 11.8063 1464.5 8.74701V6.534ZM1455.54 4.34033C1458.76 4.34033 1461.8 5.12553 1464.5 6.534V8.74803C1462.02 7.25809 1459.12 6.37309 1456.06 6.27227L1458.28 22.1107L1464.5 26.9609V30.5431L1455.5 26.9003L1446.56 30.563V27.0006L1452.82 22.1102L1455.02 6.27176C1451.92 6.37258 1449.04 7.25809 1446.56 8.74701V6.534C1449.24 5.12553 1452.3 4.34033 1455.54 4.34033ZM1464.5 40.8266C1461.8 42.2351 1458.76 43.0396 1455.54 43.0396C1452.3 43.0396 1449.24 42.2351 1446.56 40.8464V38.6126C1449.18 40.2018 1452.26 41.1077 1455.54 41.1077C1458.8 41.1077 1461.86 40.2018 1464.5 38.6126V40.8266ZM1446.56 40.8464C1440.38 37.6064 1436.17 31.1262 1436.17 23.68C1436.17 16.2339 1440.38 9.77409 1446.56 6.534V8.74803C1441.49 11.8068 1438.1 17.3409 1438.1 23.68C1438.1 26.6783 1438.87 29.5166 1440.2 31.9715L1446.56 27.0006V30.563L1440.78 32.9369C1442.23 35.2523 1444.2 37.2036 1446.56 38.6126V40.8464Z" fill="black"/>
<path d="M1376.9 40.7977C1367.47 40.7977 1359.79 33.1226 1359.79 23.6891C1359.79 23.2023 1359.82 22.721 1359.86 22.2453L1374.16 23.1383L1367.97 27.4169C1367.89 27.4753 1367.83 27.5727 1367.83 27.6812C1367.83 27.8592 1367.98 28.0067 1368.16 28.0067H1393.46C1391.54 35.3563 1384.84 40.798 1376.9 40.798M1376.9 6.5802C1386.34 6.5802 1394.01 14.2553 1394.01 23.6888C1394.01 24.1728 1393.99 24.6513 1393.95 25.1242H1393.94L1379.64 24.2145L1385.84 19.961C1385.93 19.9026 1385.98 19.8052 1385.98 19.6967C1385.98 19.5158 1385.84 19.3712 1385.66 19.3712H1360.35C1362.26 12.0215 1368.96 6.57981 1376.9 6.57981M1401.43 25.5999L1396.75 25.3022L1396.18 25.266C1396.22 24.7458 1396.25 24.22 1396.25 23.6887C1396.25 13.0203 1387.57 4.34033 1376.9 4.34033C1367.72 4.34033 1360.01 10.775 1358.04 19.3708H1353.77C1353.52 19.3708 1353.31 19.4848 1353.17 19.6629L1352.08 21.1735C1352.03 21.2374 1352 21.3181 1352 21.4044C1352 21.6102 1352.17 21.7772 1352.38 21.7772L1357.04 22.0665L1357.62 22.1054C1357.58 22.6284 1357.55 23.1543 1357.55 23.6884C1357.55 34.3568 1366.23 43.0396 1376.9 43.0396C1386.09 43.0396 1393.79 36.6022 1395.76 28.0063H1400.04C1400.28 28.0063 1400.49 27.8923 1400.63 27.7142L1401.72 26.2036C1401.77 26.1396 1401.8 26.0589 1401.8 25.9727C1401.8 25.7668 1401.63 25.5999 1401.43 25.5999" fill="black"/>
<path d="M1129.1 16.1231C1129.1 15.8217 1129.04 15.5204 1129.01 15.219L1128.93 14.5638C1128.9 14.4168 1128.84 14.278 1128.75 14.1576C1128.62 13.9742 1128.47 13.7973 1128.32 13.6204C1128.17 13.4435 1127.92 13.1486 1127.72 12.9193C1126.41 11.4124 1125.04 9.96669 1123.6 8.58209C1122.17 7.19749 1120.67 5.87185 1119.11 4.60519L1118.38 4.02863C1118.2 3.88449 1118.02 3.74038 1117.83 3.60279C1117.7 3.52167 1117.56 3.46601 1117.41 3.439L1116.71 3.36036L1115.77 3.27521C1113.75 3.10486 1111.72 3.01312 1109.69 3.01312C1107.66 3.01312 1105.62 3.10486 1103.6 3.27521L1102.66 3.36036L1101.96 3.439C1101.81 3.46601 1101.67 3.52167 1101.54 3.60279C1101.35 3.74038 1101.17 3.88449 1100.99 4.02863L1100.26 4.60519C1098.7 5.87185 1097.2 7.19749 1095.77 8.58209C1094.33 9.96669 1092.96 11.4124 1091.65 12.9193C1091.45 13.1486 1091.25 13.3911 1091.05 13.6204C1090.86 13.8497 1090.75 13.9742 1090.62 14.1576C1090.53 14.2766 1090.47 14.4131 1090.45 14.5573C1090.45 14.78 1090.39 15.0028 1090.36 15.2124C1090.33 15.4221 1090.3 15.8152 1090.27 16.1166C1090.09 18.0821 1090.01 20.0476 1090 22.0131C1089.99 23.9786 1090.09 25.9442 1090.27 27.9097C1090.27 28.2111 1090.33 28.519 1090.36 28.8204C1090.39 29.1218 1090.41 29.2724 1090.45 29.4755C1090.47 29.6197 1090.53 29.7562 1090.62 29.8752C1090.75 30.0521 1090.9 30.229 1091.05 30.4059C1091.21 30.5828 1091.45 30.8776 1091.65 31.1135C1092.96 32.6116 1094.33 34.0574 1095.77 35.4507C1097.21 36.8397 1098.7 38.1566 1100.26 39.4211L1100.99 40.0042L1101.54 40.4235C1101.67 40.5075 1101.81 40.5634 1101.96 40.5873L1102.66 40.6659L1103.6 40.7576C1105.62 40.9214 1107.66 41.0131 1109.69 41.0131C1111.72 41.0131 1113.75 40.9214 1115.77 40.7576L1116.71 40.6659C1116.95 40.6659 1117.18 40.62 1117.41 40.5873C1117.56 40.5634 1117.7 40.5075 1117.83 40.4235C1118.02 40.2859 1118.2 40.1483 1118.38 40.0042L1119.11 39.4211C1120.67 38.1566 1122.16 36.8397 1123.6 35.4507C1125.05 34.0617 1126.41 32.6138 1127.72 31.1135L1128.32 30.4059C1128.47 30.2312 1128.62 30.0543 1128.75 29.8752C1128.84 29.7567 1128.9 29.6202 1128.93 29.4755L1129.01 28.8204C1129.04 28.519 1129.07 28.2111 1129.1 27.9097C1129.28 25.9573 1129.37 23.9917 1129.37 22.0131C1129.37 20.0345 1129.28 18.069 1129.1 16.1166M1126.13 26.9793C1126.13 27.2349 1126.09 27.4969 1126.06 27.7524C1126.03 28.008 1126.01 28.1324 1125.99 28.3224C1125.97 28.4449 1125.92 28.5611 1125.84 28.6631L1125.47 29.1152L1124.97 29.7114C1123.85 31.0217 1122.69 32.2141 1121.47 33.3869C1120.26 34.5597 1118.98 35.6866 1117.67 36.7545L1117.01 37.2459C1116.86 37.3704 1116.7 37.4883 1116.55 37.5997C1116.44 37.6704 1116.32 37.7194 1116.19 37.7438L1115.6 37.8093L1114.8 37.8814C1113.09 38.0256 1111.37 38.1042 1109.65 38.1042C1107.93 38.1042 1106.2 38.0256 1104.49 37.8814L1103.69 37.8093L1103.1 37.7438C1102.97 37.7194 1102.85 37.6704 1102.74 37.5997C1102.59 37.4883 1102.44 37.3704 1102.28 37.2459L1101.66 36.7545C1100.35 35.6888 1099.08 34.5662 1097.85 33.3869C1096.64 32.2141 1095.47 30.989 1094.36 29.7114L1093.85 29.1152L1093.49 28.6631C1093.41 28.5625 1093.36 28.4458 1093.34 28.3224C1093.34 28.1324 1093.29 27.9424 1093.27 27.7524L1093.19 26.9793C1093.04 25.3283 1092.97 23.6641 1092.96 22C1092.95 20.3359 1093.04 18.6783 1093.19 17.0207L1093.27 16.2542C1093.27 16.0576 1093.31 15.8676 1093.34 15.6776C1093.36 15.5566 1093.41 15.4423 1093.49 15.3435C1093.6 15.1862 1093.73 15.0355 1093.85 14.8914L1094.36 14.2952C1095.47 12.9849 1096.64 11.7925 1097.85 10.6131C1099.06 9.43384 1100.34 8.32003 1101.66 7.24555L1102.28 6.75417L1102.74 6.40035C1102.85 6.32963 1102.97 6.28068 1103.1 6.25623L1103.69 6.19073L1104.49 6.11863C1106.2 5.9745 1107.92 5.90026 1109.65 5.8959C1111.37 5.8959 1113.09 5.9745 1114.8 6.11863L1115.6 6.19073L1116.19 6.25623C1116.32 6.28068 1116.44 6.32963 1116.55 6.40035L1117.01 6.75417L1117.67 7.24555C1118.98 8.32003 1120.25 9.44257 1121.47 10.6131C1122.69 11.7925 1123.85 13.0176 1124.97 14.2952L1125.47 14.8914L1125.84 15.3435C1125.92 15.4438 1125.96 15.5575 1125.99 15.6776C1125.99 15.8676 1126.03 16.0576 1126.06 16.2542C1126.09 16.4507 1126.11 16.7652 1126.13 17.0207C1126.28 18.6783 1126.36 20.3424 1126.36 22C1126.36 23.6576 1126.28 25.3283 1126.13 26.9793Z" fill="black"/>
<path d="M1124.13 22.0197C1123.97 22.0197 1122.52 22.0197 1121.74 22.0197H1119.48C1119.48 22.0983 1119.48 22.1376 1119.48 22.2293C1119.48 22.321 1119.48 22.5438 1119.48 22.8845C1119.48 23.4217 1119.43 24.1948 1119.48 24.719C1119.48 24.8238 1119.48 24.8565 1119.48 24.9089H1121.3C1121.3 24.9635 1121.3 25.0182 1121.3 25.0727C1121.3 25.1514 1121.21 26.2914 1121.15 26.619C1120.98 26.8852 1120.78 27.1351 1120.56 27.3658C1120.2 27.7655 1120.14 27.8638 1119.02 28.9841C1117.91 30.1045 1115.68 32.0569 1114.9 32.7055C1114.74 32.8365 1114.41 33.1314 1114.41 33.1314C1114.41 33.1314 1114.41 32.7317 1114.41 32.5352C1114.41 25.0269 1114.41 19.7003 1114.41 11.419C1114.41 11.2355 1114.41 11.0783 1114.41 10.849L1114.83 11.1896C1115.98 12.1658 1117.19 13.1551 1118.15 14.1379C1119.46 15.4483 1120.05 16.0641 1121 17.1976C1121.07 17.2755 1121.13 17.3588 1121.18 17.4466C1121.18 17.5514 1121.18 17.571 1121.22 17.702C1121.26 18.0231 1121.32 18.6717 1121.33 18.8486C1121.34 19.0255 1121.33 18.9993 1121.33 19.0976C1121.44 19.0976 1121.5 19.0976 1121.6 19.0976C1122.18 19.0976 1122.86 19.0976 1123.51 19.0976H1124.36V18.8158C1124.35 18.1059 1124.29 17.3974 1124.2 16.6931C1124.19 16.5459 1124.17 16.3994 1124.15 16.2541C1124.08 16.1651 1124.01 16.0798 1123.94 15.9986C1122.84 14.6586 1121.66 13.3812 1120.41 12.1724C1119.01 10.7528 1117.5 9.4389 1115.9 8.24136L1115.68 8.08412C1115.61 8.07817 1115.54 8.07817 1115.47 8.08412C1114.23 7.93998 1112.7 7.84827 1111.19 7.80896C1110.99 7.80896 1110.93 7.80896 1110.71 7.80896C1110.72 7.9551 1110.72 8.10178 1110.71 8.24791C1110.71 18.4752 1110.68 25.7541 1110.71 35.9028V36.2107C1110.82 36.2169 1110.93 36.2169 1111.04 36.2107C1112.25 36.2107 1114.6 36.0796 1115.2 35.9814C1115.37 35.9602 1115.55 35.9296 1115.72 35.8896C1115.83 35.8305 1115.92 35.7602 1116.01 35.68C1117.61 34.4155 1118.79 33.3869 1120.3 31.952C1121.92 30.4058 1123.38 28.7286 1123.73 28.3355C1123.88 28.1717 1123.98 28.0472 1124.15 27.8179C1124.17 27.6329 1124.18 27.4467 1124.17 27.261C1124.34 25.6353 1124.43 24.0019 1124.44 22.3669C1124.44 22.2555 1124.44 22.2096 1124.44 22.0852H1124.15" fill="black"/>
<path d="M1108.48 7.78278C1108.23 7.78278 1107.78 7.78278 1106.94 7.82864C1106.1 7.8745 1105.54 7.93347 1105.33 7.95313C1105.12 7.97278 1105.14 7.95313 1105.06 7.95313C1105.03 8.0078 1105 8.06475 1104.98 8.12344C1103.67 11.3272 1102.05 15.7759 1100.67 19.0845C1100.61 19.2221 1100.46 19.5759 1100.46 19.5759C1100.46 19.5759 1100.4 19.471 1100.24 19.1369C1099.53 17.689 1097.92 14.6424 1097.66 14.21C1097.58 14.0855 1097.45 13.8038 1097.45 13.8038C1097.45 13.8038 1097.25 14.0265 1097.12 14.1445C1096.83 14.4 1095.81 15.5859 1095.59 15.861C1095.48 15.9986 1095.45 16.0379 1095.33 16.2083C1095.22 16.3786 1095.27 16.5162 1095.24 16.7259C1095.05 18.283 1094.95 19.849 1094.94 21.4169C1094.94 23.3824 1095.06 25.1907 1095.25 27.1693C1095.25 27.2807 1095.3 27.7 1095.3 27.7C1095.3 27.7 1095.52 28.0079 1095.57 28.0603C1096.56 29.2265 1097.29 30.0652 1097.97 30.7597L1098.56 31.3624C1098.56 31.3624 1098.56 30.9431 1098.52 30.7073C1098.48 30.4714 1098.52 30.2748 1098.48 30.0521C1098.34 27.9228 1098.08 24.3259 1098 22.4586C1098 22.2162 1098.03 21.1024 1098.03 21.1024L1100.89 26.868L1101.2 26.1342C1102.34 23.2514 1103.44 20.6635 1104.56 17.7807C1104.64 17.5973 1105.04 16.5097 1105.04 16.5097C1105.04 16.5097 1105.04 17.6824 1105.04 17.9379C1104.98 26.0359 1105.04 30.6679 1105.04 35.11V35.5228C1105.04 35.7521 1105.04 35.7783 1105.04 35.929L1105.48 35.9945C1105.85 36.0572 1106.22 36.0988 1106.6 36.119C1107.25 36.1583 1107.91 36.1779 1108.47 36.191H1108.76C1108.76 36.06 1108.76 36.0011 1108.76 35.8766C1108.71 25.5117 1108.83 8.05794 1108.83 8.05794C1108.83 8.05794 1108.83 7.95968 1108.83 7.78933H1108.5" fill="black"/>
<defs>
<clipPath id="clip0_626_1181">
<rect width="35.7224" height="38.6993" fill="white" transform="translate(204.203 3.30066)"/>
</clipPath>
<clipPath id="clip1_626_1181">
<rect width="37.7318" height="38.6993" fill="white" transform="translate(-31.1277 3)"/>
</clipPath>
<clipPath id="clip2_626_1181">
<rect width="38.6993" height="38.6993" fill="white" transform="translate(52.0757 3)"/>
</clipPath>
</defs>
</svg>
