<svg width="180" height="43" viewBox="0 0 180 43" fill="none" xmlns="http://www.w3.org/2000/svg">
<rect x="0.5" y="1.5" width="179" height="41" rx="20.5" stroke="white"/>
<path d="M53.4163 28.34L52.7563 29C51.6963 29 50.8763 28.66 50.3763 28.08C50.1963 30.96 48.3163 32.88 44.6363 32.88C40.2963 32.88 38.2763 30.6 38.2963 26.62C38.2963 25.76 38.4163 24.7 38.5963 23.6H41.5163C41.3763 24.4 41.2763 25.14 41.2763 25.8C41.2563 28.02 42.1763 29.3 44.7563 29.3C47.4563 29.3 48.5763 28.38 48.5763 26.48V13.94H51.7763V23.72C51.7763 25.16 52.1963 25.56 53.4163 25.56V28.34ZM55.0204 29H52.7404V26.16L53.4004 25.56H55.0204C56.9604 25.56 58.5804 25.28 59.8604 24.7L61.2204 24.1C61.5204 23.96 61.8204 23.84 62.0804 23.74C61.6004 23.64 61.1004 23.52 60.6004 23.38L58.9804 22.9C58.2604 22.72 57.9204 22.62 57.4604 22.62C56.9004 22.62 56.5404 22.96 56.4404 23.46H53.8604C53.8804 20.8 55.2404 19.18 57.4604 19.18C58.0404 19.18 58.7404 19.3 60.0404 19.72L63.2004 20.66C63.9204 20.92 64.5004 21.08 64.9404 21.18C65.3804 21.26 65.9004 21.3 66.5004 21.3H66.9804V24.3H66.3204C64.9404 24.3 64.1604 24.76 62.3604 26.02L60.8604 27.08C58.6804 28.62 57.5004 29 55.0204 29ZM61.8404 31.66C61.8404 32.48 61.2204 33.14 60.3604 33.14C59.5404 33.14 58.8604 32.48 58.8604 31.66C58.8604 30.8 59.5404 30.16 60.3604 30.16C61.2204 30.16 61.8404 30.8 61.8404 31.66ZM77.5048 25.56V28.34L76.8648 28.96C76.6448 30.42 76.0848 31.62 75.1848 32.52C74.3048 33.42 73.0048 33.88 71.2848 33.88C70.4248 33.88 69.3248 33.78 68.1848 33.52V30.34C69.3248 30.6 70.3848 30.7 71.2048 30.7C73.3048 30.7 74.3648 30.28 74.7448 29H72.4048C69.4248 29 67.8248 27.46 67.8248 25C67.8248 22.32 69.8248 19.9 72.4048 19.9C74.7248 19.9 76.5048 21.9 76.9048 25.56H77.5048ZM71.9848 25.56H74.6848C74.2648 23.98 73.1448 23.12 71.6848 23.12C70.7048 23.12 70.0248 23.76 70.0248 24.5C70.0248 25.22 70.6248 25.56 71.9848 25.56ZM79.122 29H76.842V26.16L77.502 25.56H79.122C81.062 25.56 82.682 25.28 83.962 24.7L85.322 24.1C85.622 23.96 85.922 23.84 86.182 23.74C85.702 23.64 85.202 23.52 84.702 23.38L83.082 22.9C82.362 22.72 82.022 22.62 81.562 22.62C81.002 22.62 80.642 22.96 80.542 23.46H77.962C77.982 20.8 79.342 19.18 81.562 19.18C82.142 19.18 82.842 19.3 84.142 19.72L87.302 20.66C88.022 20.92 88.602 21.08 89.042 21.18C89.482 21.26 90.002 21.3 90.602 21.3H91.082V24.3H90.422C89.042 24.3 88.262 24.76 86.462 26.02L84.962 27.08C82.782 28.62 81.602 29 79.122 29ZM85.942 31.66C85.942 32.48 85.322 33.14 84.462 33.14C83.642 33.14 82.962 32.48 82.962 31.66C82.962 30.8 83.642 30.16 84.462 30.16C85.322 30.16 85.942 30.8 85.942 31.66ZM100.592 29H94.7716V25.56H96.4516L97.0116 24.52V13.94H100.212V20.7C101.512 19.72 102.952 19.18 104.532 19.18C107.432 19.18 109.312 21.32 109.312 23.96C109.312 24.38 109.252 24.82 109.152 25.2C109.572 25.46 110.112 25.56 111.052 25.56V28.3L110.392 29C109.052 29 108.112 28.52 107.532 27.5C106.092 28.48 103.772 29 100.592 29ZM104.452 22.64C102.292 22.64 100.352 23.72 98.7316 25.56H101.272C105.592 25.56 106.992 25.14 106.992 24.08C106.992 23.34 106.032 22.64 104.452 22.64ZM116.097 16.86V18.58L111.437 19.24V17.52L112.117 17.42C111.857 17.1 111.697 16.68 111.697 16.22C111.717 15.02 112.657 14.1 113.877 14.1C114.977 14.1 115.697 14.86 115.777 16.08L114.677 16.22C114.517 15.98 114.197 15.84 113.857 15.84C113.317 15.84 113.037 16.04 113.037 16.38C113.037 16.86 113.697 17.22 114.557 17.08L116.097 16.86ZM111.337 29H110.397V26.16L111.057 25.56C112.357 25.56 112.757 24.96 112.757 23.5C112.757 22.68 112.657 21.54 112.477 20.1H115.477C115.637 21.54 115.737 22.9 115.737 24.04C115.737 27.22 114.197 29 111.337 29ZM120.61 13.94V29H117.43V13.94H120.61ZM129.282 28.34L128.622 29C127.662 29 126.982 28.68 126.562 28.04C126.422 31.94 124.922 33.88 122.142 33.88C121.562 33.88 120.902 33.86 120.342 33.78V30.32C120.922 30.38 121.382 30.44 121.802 30.44C123.382 30.44 124.442 29.4 124.442 26.82C124.442 25.14 124.182 23.42 123.782 21.5H126.882L127.182 23.4C127.422 25.06 128.002 25.56 129.282 25.56V28.34ZM135.139 16.58C135.139 17.4 134.479 18.06 133.659 18.06C132.799 18.06 132.139 17.4 132.139 16.58C132.139 15.72 132.799 15.06 133.659 15.06C134.479 15.06 135.139 15.72 135.139 16.58ZM130.899 29H128.619V26.16L129.279 25.56H130.899C132.839 25.56 134.459 25.28 135.739 24.7L137.099 24.1C137.399 23.96 137.699 23.84 137.959 23.74C137.479 23.64 136.979 23.52 136.479 23.38L134.859 22.9C134.139 22.72 133.799 22.62 133.339 22.62C132.779 22.62 132.419 22.96 132.319 23.46H129.739C129.759 20.8 131.119 19.18 133.339 19.18C133.919 19.18 134.619 19.3 135.919 19.72L139.079 20.66C139.799 20.92 140.379 21.08 140.819 21.18C141.259 21.26 141.779 21.3 142.379 21.3H142.859V24.3H142.199C140.819 24.3 140.039 24.76 138.239 26.02L136.739 27.08C134.559 28.62 133.379 29 130.899 29Z" fill="white"/>
<path d="M155.558 27.2971C156.194 28.108 156.773 28.9621 157.291 29.8533C157.733 30.6915 157.917 31.2598 158.241 32.2698C158.439 32.8277 158.618 32.9942 159.003 32.9942C159.422 32.9942 159.612 32.7109 159.76 32.2728C160.065 31.3191 160.305 30.5912 160.683 29.9035C161.424 28.5757 162.346 27.3958 163.252 26.2617C163.497 25.9408 165.082 24.071 165.796 22.5957C165.796 22.5957 166.673 20.9751 166.673 18.7118C166.673 16.5946 165.808 15.1262 165.808 15.1262L163.317 15.7932L161.805 19.7766L161.431 20.3259L161.356 20.4254L161.256 20.5499L161.082 20.7489L160.832 20.9985L159.485 22.0957L156.118 24.0399L155.558 27.2971Z" fill="#34A853"/>
<path d="M152.083 22.3232C152.905 24.2003 154.49 25.8504 155.562 27.2984L161.257 20.5525C161.257 20.5525 160.454 21.6018 158.999 21.6018C157.378 21.6018 156.068 20.3073 156.068 18.675C156.068 17.5556 156.742 16.7866 156.742 16.7866L152.876 17.8225L152.083 22.3232Z" fill="#FBBC04"/>
<path d="M161.32 11.3469C163.211 11.9568 164.83 13.237 165.81 15.1249L161.258 20.5486C161.258 20.5486 161.932 19.7658 161.932 18.6534C161.932 16.983 160.525 15.7352 159.006 15.7352C157.569 15.7352 156.744 16.7828 156.744 16.7828V13.3659L161.32 11.3469Z" fill="#4285F4"/>
<path d="M153.126 13.7434C154.256 12.3918 156.244 11 158.984 11C160.314 11 161.315 11.349 161.315 11.349L156.739 16.7857H153.497L153.126 13.7434Z" fill="#1A73E8"/>
<path d="M152.083 22.3232C152.083 22.3232 151.327 20.8427 151.327 18.6978C151.327 16.6707 152.115 14.8987 153.126 13.7434L156.742 16.7861L152.083 22.3232Z" fill="#EA4335"/>
</svg>
