<svg width="32" height="32" viewBox="0 0 32 32" fill="none" xmlns="http://www.w3.org/2000/svg">
<circle cx="16" cy="16" r="16" fill="#FDB800"/>
<path d="M20.5354 18.1088C20.2247 17.8846 19.9139 17.7725 19.6031 18.2208L18.3599 20.0143C18.0491 20.2384 17.8419 20.3505 17.4275 20.1264C15.8736 19.2296 13.6981 18.2208 11.8333 14.8582C11.7297 14.4098 11.9369 14.1857 12.1441 13.9615L13.0765 12.3923C13.2837 12.1681 13.1801 11.9439 13.0765 11.7197L11.8333 8.46916C11.5225 7.57245 11.2117 7.68454 10.9009 7.68454H10.0722C9.86498 7.68454 9.4506 7.79663 9.03621 8.24498C6.75708 10.7109 7.68945 14.1857 9.347 16.4274C9.65779 16.8758 11.7297 20.911 16.1844 23.0407C19.4995 24.6099 20.2247 24.3857 21.157 24.1615C22.2966 24.0494 23.4361 23.0407 23.9541 22.0319C24.0577 21.6956 24.5757 20.2384 24.1613 20.0143" fill="white"/>
</svg>
