<svg width="24" height="24" viewBox="0 0 24 24" fill="none" xmlns="http://www.w3.org/2000/svg">
<circle cx="12" cy="12" r="12" fill="#FDB800"/>
<path d="M15.4018 13.5815C15.1687 13.4134 14.9356 13.3293 14.7025 13.6656L13.7702 15.0107C13.5371 15.1788 13.3817 15.2629 13.0709 15.0947C11.9054 14.4222 10.2738 13.6656 8.87523 11.1436C8.79754 10.8074 8.95293 10.6392 9.10833 10.4711L9.8076 9.29416C9.963 9.12603 9.8853 8.95789 9.8076 8.78976L8.87523 6.35184C8.64214 5.67931 8.40905 5.76337 8.17596 5.76337H7.55438C7.39898 5.76337 7.08819 5.84744 6.7774 6.1837C5.06806 8.03316 5.76733 10.6392 7.01049 12.3205C7.24359 12.6568 8.79754 15.6832 12.1385 17.2805C14.6249 18.4574 15.1687 18.2893 15.868 18.1211C16.7227 18.0371 17.5774 17.2805 17.9658 16.5239C18.0435 16.2717 18.432 15.1788 18.1212 15.0107" fill="white"/>
</svg>
