<svg width="172" height="28" viewBox="0 0 172 28" fill="none" xmlns="http://www.w3.org/2000/svg">
<path d="M13.1033 1.81699C13.4701 1.07374 14.5299 1.07374 14.8967 1.81699L17.8818 7.86544C18.0275 8.16058 18.3091 8.36515 18.6348 8.41248L25.3096 9.38239C26.1298 9.50158 26.4574 10.5096 25.8638 11.0881L21.0339 15.7962C20.7982 16.0259 20.6906 16.3569 20.7463 16.6813L21.8865 23.3292C22.0266 24.1461 21.1691 24.769 20.4355 24.3834L14.4653 21.2446C14.174 21.0915 13.826 21.0915 13.5347 21.2446L7.56448 24.3834C6.83085 24.769 5.97342 24.1461 6.11353 23.3292L7.25373 16.6813C7.30937 16.3569 7.20182 16.0259 6.96614 15.7962L2.13616 11.0881C1.54264 10.5096 1.87015 9.50158 2.69037 9.38239L9.36524 8.41248C9.69095 8.36515 9.97251 8.16058 10.1182 7.86544L13.1033 1.81699Z" fill="#FDB800"/>
<path d="M13.1033 1.81699C13.4701 1.07374 14.5299 1.07374 14.8967 1.81699L17.8818 7.86544C18.0275 8.16058 18.3091 8.36515 18.6348 8.41248L25.3096 9.38239C26.1298 9.50158 26.4574 10.5096 25.8638 11.0881L21.0339 15.7962C20.7982 16.0259 20.6906 16.3569 20.7463 16.6813L21.8865 23.3292C22.0266 24.1461 21.1691 24.769 20.4355 24.3834L14.4653 21.2446C14.174 21.0915 13.826 21.0915 13.5347 21.2446L7.56448 24.3834C6.83085 24.769 5.97342 24.1461 6.11353 23.3292L7.25373 16.6813C7.30937 16.3569 7.20182 16.0259 6.96614 15.7962L2.13616 11.0881C1.54264 10.5096 1.87015 9.50158 2.69037 9.38239L9.36524 8.41248C9.69095 8.36515 9.97251 8.16058 10.1182 7.86544L13.1033 1.81699Z" stroke="black"/>
<path d="M49.1033 1.81699C49.4701 1.07374 50.5299 1.07374 50.8967 1.81699L53.8818 7.86544C54.0275 8.16058 54.3091 8.36515 54.6348 8.41248L61.3096 9.38239C62.1298 9.50158 62.4574 10.5096 61.8638 11.0881L57.0339 15.7962C56.7982 16.0259 56.6906 16.3569 56.7463 16.6813L57.8865 23.3292C58.0266 24.1461 57.1691 24.769 56.4355 24.3834L50.4653 21.2446C50.174 21.0915 49.826 21.0915 49.5347 21.2446L43.5645 24.3834C42.8309 24.769 41.9734 24.1461 42.1135 23.3292L43.2537 16.6813C43.3094 16.3569 43.2018 16.0259 42.9661 15.7962L38.1362 11.0881C37.5426 10.5096 37.8702 9.50158 38.6904 9.38239L45.3652 8.41248C45.6909 8.36515 45.9725 8.16058 46.1182 7.86544L49.1033 1.81699Z" fill="#FDB800"/>
<path d="M49.1033 1.81699C49.4701 1.07374 50.5299 1.07374 50.8967 1.81699L53.8818 7.86544C54.0275 8.16058 54.3091 8.36515 54.6348 8.41248L61.3096 9.38239C62.1298 9.50158 62.4574 10.5096 61.8638 11.0881L57.0339 15.7962C56.7982 16.0259 56.6906 16.3569 56.7463 16.6813L57.8865 23.3292C58.0266 24.1461 57.1691 24.769 56.4355 24.3834L50.4653 21.2446C50.174 21.0915 49.826 21.0915 49.5347 21.2446L43.5645 24.3834C42.8309 24.769 41.9734 24.1461 42.1135 23.3292L43.2537 16.6813C43.3094 16.3569 43.2018 16.0259 42.9661 15.7962L38.1362 11.0881C37.5426 10.5096 37.8702 9.50158 38.6904 9.38239L45.3652 8.41248C45.6909 8.36515 45.9725 8.16058 46.1182 7.86544L49.1033 1.81699Z" stroke="black"/>
<path d="M85.1033 1.81699C85.4701 1.07374 86.5299 1.07374 86.8967 1.81699L89.8818 7.86544C90.0275 8.16058 90.3091 8.36515 90.6348 8.41248L97.3096 9.38239C98.1298 9.50158 98.4574 10.5096 97.8638 11.0881L93.0339 15.7962C92.7982 16.0259 92.6906 16.3569 92.7463 16.6813L93.8865 23.3292C94.0266 24.1461 93.1691 24.769 92.4355 24.3834L86.4653 21.2446C86.174 21.0915 85.826 21.0915 85.5347 21.2446L79.5645 24.3834C78.8309 24.769 77.9734 24.1461 78.1135 23.3292L79.2537 16.6813C79.3094 16.3569 79.2018 16.0259 78.9661 15.7962L74.1362 11.0881C73.5426 10.5096 73.8702 9.50158 74.6904 9.38239L81.3652 8.41248C81.6909 8.36515 81.9725 8.16058 82.1182 7.86544L85.1033 1.81699Z" fill="#FDB800"/>
<path d="M85.1033 1.81699C85.4701 1.07374 86.5299 1.07374 86.8967 1.81699L89.8818 7.86544C90.0275 8.16058 90.3091 8.36515 90.6348 8.41248L97.3096 9.38239C98.1298 9.50158 98.4574 10.5096 97.8638 11.0881L93.0339 15.7962C92.7982 16.0259 92.6906 16.3569 92.7463 16.6813L93.8865 23.3292C94.0266 24.1461 93.1691 24.769 92.4355 24.3834L86.4653 21.2446C86.174 21.0915 85.826 21.0915 85.5347 21.2446L79.5645 24.3834C78.8309 24.769 77.9734 24.1461 78.1135 23.3292L79.2537 16.6813C79.3094 16.3569 79.2018 16.0259 78.9661 15.7962L74.1362 11.0881C73.5426 10.5096 73.8702 9.50158 74.6904 9.38239L81.3652 8.41248C81.6909 8.36515 81.9725 8.16058 82.1182 7.86544L85.1033 1.81699Z" stroke="black"/>
<path d="M121.103 1.81699C121.47 1.07374 122.53 1.07374 122.897 1.81699L125.882 7.86544C126.027 8.16058 126.309 8.36515 126.635 8.41248L133.31 9.38239C134.13 9.50158 134.457 10.5096 133.864 11.0881L129.034 15.7962C128.798 16.0259 128.691 16.3569 128.746 16.6813L129.886 23.3292C130.027 24.1461 129.169 24.769 128.436 24.3834L122.465 21.2446C122.174 21.0915 121.826 21.0915 121.535 21.2446L115.564 24.3834C114.831 24.769 113.973 24.1461 114.114 23.3292L115.254 16.6813C115.309 16.3569 115.202 16.0259 114.966 15.7962L110.136 11.0881C109.543 10.5096 109.87 9.50158 110.69 9.38239L117.365 8.41248C117.691 8.36515 117.973 8.16058 118.118 7.86544L121.103 1.81699Z" fill="#FDB800"/>
<path d="M121.103 1.81699C121.47 1.07374 122.53 1.07374 122.897 1.81699L125.882 7.86544C126.027 8.16058 126.309 8.36515 126.635 8.41248L133.31 9.38239C134.13 9.50158 134.457 10.5096 133.864 11.0881L129.034 15.7962C128.798 16.0259 128.691 16.3569 128.746 16.6813L129.886 23.3292C130.027 24.1461 129.169 24.769 128.436 24.3834L122.465 21.2446C122.174 21.0915 121.826 21.0915 121.535 21.2446L115.564 24.3834C114.831 24.769 113.973 24.1461 114.114 23.3292L115.254 16.6813C115.309 16.3569 115.202 16.0259 114.966 15.7962L110.136 11.0881C109.543 10.5096 109.87 9.50158 110.69 9.38239L117.365 8.41248C117.691 8.36515 117.973 8.16058 118.118 7.86544L121.103 1.81699Z" stroke="black"/>
<path d="M157.103 1.81699C157.47 1.07374 158.53 1.07374 158.897 1.81699L161.882 7.86544C162.027 8.16058 162.309 8.36515 162.635 8.41248L169.31 9.38239C170.13 9.50158 170.457 10.5096 169.864 11.0881L165.034 15.7962C164.798 16.0259 164.691 16.3569 164.746 16.6813L165.886 23.3292C166.027 24.1461 165.169 24.769 164.436 24.3834L158.465 21.2446C158.174 21.0915 157.826 21.0915 157.535 21.2446L151.564 24.3834C150.831 24.769 149.973 24.1461 150.114 23.3292L151.254 16.6813C151.309 16.3569 151.202 16.0259 150.966 15.7962L146.136 11.0881C145.543 10.5096 145.87 9.50158 146.69 9.38239L153.365 8.41248C153.691 8.36515 153.973 8.16058 154.118 7.86544L157.103 1.81699Z" fill="#FDB800"/>
<path d="M157.103 1.81699C157.47 1.07374 158.53 1.07374 158.897 1.81699L161.882 7.86544C162.027 8.16058 162.309 8.36515 162.635 8.41248L169.31 9.38239C170.13 9.50158 170.457 10.5096 169.864 11.0881L165.034 15.7962C164.798 16.0259 164.691 16.3569 164.746 16.6813L165.886 23.3292C166.027 24.1461 165.169 24.769 164.436 24.3834L158.465 21.2446C158.174 21.0915 157.826 21.0915 157.535 21.2446L151.564 24.3834C150.831 24.769 149.973 24.1461 150.114 23.3292L151.254 16.6813C151.309 16.3569 151.202 16.0259 150.966 15.7962L146.136 11.0881C145.543 10.5096 145.87 9.50158 146.69 9.38239L153.365 8.41248C153.691 8.36515 153.973 8.16058 154.118 7.86544L157.103 1.81699Z" stroke="black"/>
</svg>
