<svg width="37" height="36" viewBox="0 0 37 36" fill="none" xmlns="http://www.w3.org/2000/svg">
<path d="M18.6949 35.7966C28.5799 35.7966 36.5932 27.7833 36.5932 17.8983C36.5932 8.01334 28.5799 0 18.6949 0C8.80998 0 0.796631 8.01334 0.796631 17.8983C0.796631 27.7833 8.80998 35.7966 18.6949 35.7966Z" fill="white"/>
<path d="M7.84106 27.281L7.928 27.5265C7.91687 27.4984 7.88506 27.4125 7.84106 27.281ZM11.2813 21.7188C11.434 20.4 11.9524 19.6616 12.9293 18.9046C14.3272 17.8794 16.0733 18.4594 16.0733 18.4594V15.0191C16.4978 15.0078 16.9224 15.034 17.3423 15.0976V19.5248C17.3423 19.5248 15.5967 18.9449 14.1989 19.9706C13.2225 20.7271 12.703 21.466 12.5509 22.7848C12.5461 23.501 12.6749 24.4371 13.2681 25.2466C13.1214 25.1681 12.9719 25.0787 12.8196 24.9783C11.513 24.0629 11.275 22.6894 11.2813 21.7188ZM24.552 8.65809C23.5904 7.5587 23.2268 6.4487 23.0953 5.66895H24.305C24.305 5.66895 24.0638 7.71348 25.8215 9.72409L25.8459 9.75113C25.3722 9.44021 24.9377 9.0732 24.552 8.65809ZM30.3792 11.775V16.1132C30.3792 16.1132 28.8356 16.0501 27.6933 15.7469C26.0982 15.3228 25.0731 14.6724 25.0731 14.6724C25.0731 14.6724 24.3649 14.2086 24.3076 14.1763V23.1347C24.3076 23.6335 24.1767 24.8792 23.7775 25.9182C23.2565 27.2773 22.4523 28.1694 22.3044 28.3518C22.3044 28.3518 21.3264 29.5577 19.601 30.3698C18.0457 31.1024 16.6802 31.0838 16.2721 31.1024C16.2721 31.1024 13.9116 31.1999 11.7875 29.7597C11.3282 29.4423 10.8995 29.0827 10.5069 28.6857L10.5175 28.6937C12.642 30.1339 15.002 30.0364 15.002 30.0364C15.4107 30.0178 16.7762 30.0364 18.3309 29.3038C20.0547 28.4917 21.0343 27.2858 21.0343 27.2858C21.1806 27.1034 21.9885 26.2113 22.5074 24.8516C22.9055 23.8132 23.0375 22.567 23.0375 22.0682V13.1108C23.0948 13.1437 23.8024 13.6075 23.8024 13.6075C23.8024 13.6075 24.8282 14.2584 26.4232 14.682C27.566 14.9852 29.1091 15.0483 29.1091 15.0483V11.6488C29.6371 11.7723 30.0871 11.8057 30.3792 11.775Z" fill="#EE1D52"/>
<path d="M29.1097 11.6488V15.0472C29.1097 15.0472 27.5666 14.9841 26.4237 14.6809C24.8287 14.2568 23.803 13.6064 23.803 13.6064C23.803 13.6064 23.0953 13.1426 23.0381 13.1097V22.0692C23.0381 22.568 22.9071 23.8143 22.508 24.8527C21.9869 26.2124 21.1828 27.1045 21.0349 27.2869C21.0349 27.2869 20.0564 28.4928 18.3315 29.3049C16.7767 30.0375 15.4112 30.0189 15.0025 30.0375C15.0025 30.0375 12.6426 30.135 10.518 28.6948L10.5074 28.6868C10.2831 28.4602 10.072 28.2209 9.87502 27.9701C9.19704 27.1077 8.78145 26.0878 8.67703 25.7968C8.67685 25.7956 8.67685 25.7943 8.67703 25.7931C8.50899 25.2874 8.15595 24.073 8.20419 22.8967C8.28954 20.8214 8.98925 19.5476 9.17425 19.2285C9.66421 18.3583 10.3015 17.5797 11.0576 16.9274C11.7249 16.3645 12.4813 15.9167 13.2957 15.6022C14.176 15.233 15.1188 15.0351 16.0733 15.0191V18.4594C16.0733 18.4594 14.3272 17.8816 12.9299 18.9046C11.953 19.6616 11.4345 20.4 11.2819 21.7188C11.2755 22.6894 11.5135 24.0629 12.8191 24.9789C12.9714 25.0796 13.1209 25.169 13.2676 25.2471C13.4956 25.5564 13.7733 25.826 14.0892 26.0449C15.3646 26.8872 16.4332 26.946 17.7998 26.399C18.711 26.0332 19.3969 25.2089 19.715 24.2956C19.9148 23.7252 19.9122 23.1511 19.9122 22.5574V5.66895H23.0927C23.2241 6.4487 23.5878 7.5587 24.5494 8.65809C24.9351 9.0732 25.3695 9.4402 25.8433 9.75113C25.9832 9.9022 26.6988 10.6491 27.6175 11.1076C28.0925 11.3446 28.5932 11.5262 29.1097 11.6488Z" fill="black"/>
<path d="M7.41113 24.7402V24.7429L7.48959 24.966C7.48057 24.9401 7.45142 24.8611 7.41113 24.7402Z" fill="#69C9D0"/>
<path d="M13.2956 15.602C12.4812 15.9165 11.7249 16.3644 11.0576 16.9273C10.3012 17.581 9.66407 18.3613 9.17472 19.2331C8.98973 19.5512 8.29001 20.826 8.20467 22.9013C8.15643 24.0776 8.50947 25.292 8.67751 25.7977C8.67732 25.7989 8.67732 25.8002 8.67751 25.8014C8.78352 26.0898 9.19752 27.1097 9.8755 27.9748C10.0724 28.2255 10.2836 28.4648 10.5079 28.6914C9.78919 28.1944 9.14823 27.5934 8.60594 26.9082C7.9338 26.0532 7.51927 25.0439 7.41113 24.746C7.41101 24.7439 7.41101 24.7418 7.41113 24.7396V24.7359C7.24257 24.2308 6.88847 23.0158 6.93777 21.838C7.02311 19.7627 7.72282 18.4889 7.90782 18.1698C8.39702 17.2978 9.03413 16.5176 9.79068 15.8639C10.4578 15.3008 11.2142 14.853 12.0287 14.5387C12.5367 14.3279 13.066 14.1724 13.6073 14.0749C14.4231 13.9325 15.2563 13.9201 16.0759 14.0383V15.019C15.1205 15.0346 14.1768 15.2325 13.2956 15.602Z" fill="#69C9D0"/>
<path d="M23.0953 5.66883H19.9148V22.5578C19.9148 23.1515 19.9148 23.724 19.7176 24.296C19.3964 25.2088 18.7131 26.0331 17.8024 26.3988C16.4353 26.948 15.3667 26.8871 14.0918 26.0447C13.7753 25.8268 13.497 25.5582 13.2681 25.2496C14.3542 25.829 15.3264 25.8189 16.5307 25.3355C17.4409 24.9697 18.1252 24.1455 18.4454 23.2321C18.6458 22.6617 18.6431 22.0877 18.6431 21.4945V4.60229H23.0349C23.0349 4.60229 22.9856 5.02212 23.0953 5.66883ZM29.1096 10.7089V11.6487C28.5941 11.5259 28.0943 11.3443 27.6201 11.1075C26.7015 10.649 25.9859 9.90208 25.8459 9.75101C26.0083 9.85762 26.1768 9.95462 26.3506 10.0415C27.4674 10.5991 28.5674 10.7656 29.1096 10.7089Z" fill="#69C9D0"/>
</svg>
