<svg width="15" height="15" viewBox="0 0 15 15" fill="none" xmlns="http://www.w3.org/2000/svg">
<path fill-rule="evenodd" clip-rule="evenodd" d="M7.36396 5.94975L1.70711 0.292896C1.31659 -0.0976281 0.683421 -0.0976281 0.292896 0.292896C-0.0976281 0.683421 -0.0976281 1.31659 0.292896 1.70711L5.94975 7.36396L0.292896 13.0208C-0.0976281 13.4113 -0.0976281 14.0445 0.292896 14.435C0.683421 14.8256 1.31659 14.8256 1.70711 14.435L7.36396 8.77818L13.0208 14.435C13.4113 14.8256 14.0445 14.8256 14.435 14.435C14.8256 14.0445 14.8256 13.4113 14.435 13.0208L8.77818 7.36396L14.435 1.70711C14.8256 1.31659 14.8256 0.683421 14.435 0.292896C14.0445 -0.0976281 13.4113 -0.0976281 13.0208 0.292896L7.36396 5.94975Z" fill="#FF0000"/>
</svg>
