<svg width="32" height="32" viewBox="0 0 32 32" fill="none" xmlns="http://www.w3.org/2000/svg">
<circle cx="16" cy="15.9999" r="16" fill="#25D366"/>
<path fill-rule="evenodd" clip-rule="evenodd" d="M16.5818 7.43743C14.5831 7.37495 12.6298 8.02914 11.0884 9.27726C9.54699 10.5254 8.52341 12.2817 8.20969 14.2166C7.89597 16.1515 8.31368 18.1321 9.38444 19.7868L9.57167 20.0761L8.87679 23.2369L12.0534 22.3616L12.3598 22.5269C14.1116 23.4717 16.1551 23.7577 18.1069 23.3314C20.0587 22.905 21.7847 21.7956 22.9609 20.2112C24.1372 18.6268 24.6829 16.6763 24.4958 14.7257C24.3086 12.7752 23.4014 10.9585 21.9443 9.61665C20.4873 8.27478 18.5805 7.49992 16.5818 7.43743ZM10.0002 7.98735C11.8623 6.47961 14.2218 5.68935 16.6363 5.76484C19.0507 5.84032 21.3541 6.77635 23.1142 8.39733C24.8743 10.0183 25.9702 12.2128 26.1963 14.5691C26.4224 16.9254 25.7632 19.2816 24.3423 21.1955C22.9213 23.1095 20.8364 24.4497 18.4786 24.9647C16.237 25.4544 13.8952 25.1661 11.8512 24.1557L6.61006 25.5999L7.75656 20.3848C6.60084 18.4485 6.16245 16.1764 6.52276 13.9541C6.90173 11.6167 8.13823 9.49508 10.0002 7.98735Z" fill="white"/>
<path d="M20.0709 16.6577C19.8796 16.5197 19.6884 16.4508 19.4971 16.7267L18.7321 17.8303C18.5409 17.9683 18.4134 18.0372 18.1583 17.8993C17.2021 17.3475 15.8633 16.7267 14.7157 14.6573C14.652 14.3814 14.7795 14.2435 14.907 14.1055L15.4808 13.1398C15.6083 13.0019 15.5445 12.8639 15.4808 12.726L14.7157 10.7256C14.5245 10.1738 14.3332 10.2428 14.142 10.2428H13.632C13.5045 10.2428 13.2495 10.3118 12.9945 10.5877C11.5919 12.1052 12.1657 14.2435 13.1857 15.623C13.377 15.8989 14.652 18.3821 17.3933 19.6927C19.4334 20.6584 19.8796 20.5204 20.4534 20.3825C21.1547 20.3135 21.856 19.6927 22.1747 19.0719C22.2385 18.865 22.5572 17.9683 22.3022 17.8303" fill="white"/>
</svg>
