<svg width="48" height="48" viewBox="0 0 48 48" fill="none" xmlns="http://www.w3.org/2000/svg">
<circle cx="24" cy="24" r="24" fill="#25D366"/>
<path fill-rule="evenodd" clip-rule="evenodd" d="M24.873 11.1562C21.8749 11.0625 18.945 12.0438 16.6328 13.916C14.3207 15.7882 12.7854 18.4226 12.3148 21.325C11.8442 24.2274 12.4708 27.1982 14.0769 29.6802L14.3577 30.1142L13.3154 34.8555L18.0803 33.5425L18.5399 33.7904C21.1676 35.2076 24.2329 35.6367 27.1606 34.9972C30.0883 34.3577 32.6772 32.6935 34.4416 30.3169C36.206 27.9403 37.0246 25.0146 36.7439 22.0887C36.4631 19.1628 35.1023 16.4379 32.9167 14.4251C30.7311 12.4123 27.871 11.25 24.873 11.1562ZM15.0006 11.9811C17.7936 9.71951 21.333 8.53412 24.9547 8.64735C28.5763 8.76057 32.0314 10.1646 34.6715 12.5961C37.3117 15.0275 38.9556 18.3193 39.2947 21.8537C39.6339 25.3882 38.645 28.9224 36.5136 31.7934C34.3822 34.6643 31.2548 36.6747 27.7182 37.4472C24.3557 38.1817 20.843 37.7493 17.7771 36.2336L9.91534 38.3999L11.6351 30.5772C9.9015 27.6729 9.24392 24.2646 9.78439 20.9312C10.3528 17.4251 12.2076 14.2427 15.0006 11.9811Z" fill="white"/>
<path d="M30.1061 24.9866C29.8192 24.7797 29.5323 24.6762 29.2455 25.0901L28.0979 26.7455C27.811 26.9525 27.6198 27.0559 27.2373 26.849C25.8029 26.0213 23.7947 25.0901 22.0734 21.9861C21.9778 21.5722 22.169 21.3653 22.3603 21.1584L23.2209 19.7098C23.4122 19.5029 23.3165 19.296 23.2209 19.089L22.0734 16.0885C21.7865 15.2608 21.4996 15.3642 21.2127 15.3642H20.4477C20.2565 15.3642 19.8739 15.4677 19.4914 15.8816C17.3876 18.1578 18.2483 21.3653 19.7783 23.4346C20.0652 23.8485 21.9778 27.5733 26.0897 29.5391C29.1498 30.9876 29.8192 30.7807 30.6799 30.5738C31.7318 30.4703 32.7837 29.5391 33.2618 28.6079C33.3575 28.2975 33.8356 26.9525 33.4531 26.7455" fill="white"/>
</svg>
