<svg width="24" height="24" viewBox="0 0 24 24" fill="none" xmlns="http://www.w3.org/2000/svg">
<circle cx="12" cy="12" r="12" fill="#25D366"/>
<path fill-rule="evenodd" clip-rule="evenodd" d="M12.4362 5.57823C10.9372 5.53136 9.47224 6.02201 8.31618 6.9581C7.16012 7.89419 6.39243 9.2114 6.15714 10.6626C5.92185 12.1138 6.23514 13.5992 7.03821 14.8402L7.17863 15.0572L6.65747 17.4278L9.03991 16.7714L9.26971 16.8953C10.5836 17.6039 12.1162 17.8184 13.5801 17.4987C15.0439 17.1789 16.3384 16.3468 17.2206 15.1585C18.1028 13.9702 18.5121 12.5074 18.3717 11.0445C18.2313 9.58152 17.5509 8.21904 16.4581 7.21264C15.3653 6.20624 13.9353 5.62509 12.4362 5.57823ZM7.50006 5.99066C8.89658 4.85986 10.6663 4.26717 12.4771 4.32378C14.2879 4.38039 16.0154 5.08242 17.3355 6.29815C18.6556 7.51388 19.4776 9.15975 19.6471 10.927C19.8167 12.6942 19.3223 14.4613 18.2566 15.8968C17.1909 17.3323 15.6272 18.3374 13.8588 18.7237C12.1776 19.0909 10.4212 18.8748 8.8883 18.1169L4.95742 19.2001L5.8173 15.2887C4.95051 13.8366 4.62171 12.1324 4.89195 10.4657C5.17618 8.71266 6.10355 7.12146 7.50006 5.99066Z" fill="white"/>
<path d="M15.0533 12.4932C14.9099 12.3897 14.7664 12.338 14.623 12.5449L14.0492 13.3726C13.9058 13.4761 13.8101 13.5278 13.6189 13.4244C12.9017 13.0105 11.8976 12.5449 11.0369 10.9929C10.9891 10.786 11.0847 10.6825 11.1804 10.5791L11.6107 9.85479C11.7063 9.75133 11.6585 9.64786 11.6107 9.54439L11.0369 8.04413C10.8935 7.63027 10.7501 7.682 10.6066 7.682H10.2241C10.1285 7.682 9.93722 7.73373 9.74596 7.94067C8.69406 9.0788 9.12438 10.6825 9.8894 11.7172C10.0328 11.9241 10.9891 13.7865 13.0451 14.7694C14.5752 15.4937 14.9099 15.3902 15.3402 15.2868C15.8661 15.235 16.3921 14.7694 16.6312 14.3038C16.679 14.1486 16.918 13.4761 16.7268 13.3726" fill="white"/>
</svg>
