<svg width="220" height="29" viewBox="0 0 220 29" fill="none" xmlns="http://www.w3.org/2000/svg">
<path d="M130.936 16.92C130.936 19.864 128.792 21.192 124.184 21.192C121.816 21.192 120.104 20.824 119.048 20.104C117.992 19.384 117.464 18.216 117.464 16.632C117.464 15.928 117.56 15.096 117.736 14.44H120.088C119.944 15.064 119.864 15.656 119.864 16.088C119.864 17.704 121.064 18.328 124.184 18.328C125.816 18.328 126.952 18.2 127.592 17.96C128.232 17.704 128.552 17.256 128.552 16.6C128.552 15.944 128.456 15.032 128.28 13.88H130.696C130.84 14.984 130.936 16.072 130.936 16.92ZM125.416 23.272C125.416 23.928 124.904 24.456 124.216 24.456C123.56 24.456 123.016 23.928 123.016 23.272C123.016 22.584 123.56 22.072 124.216 22.072C124.904 22.072 125.416 22.584 125.416 23.272ZM136.11 20.472L135.566 21H135.342C133.102 21 132.238 19.848 132.238 17.432V8.952H134.798V16.84C134.798 17.912 135.102 18.248 136.11 18.248V20.472ZM137.821 20.504L137.293 21H135.581V18.728L136.109 18.248H137.821V20.504ZM139.54 20.504L139.012 21H137.3V18.728L137.828 18.248H139.54V20.504ZM141.259 20.504L140.731 21H139.019V18.728L139.547 18.248H141.259V20.504ZM142.978 20.504L142.45 21H140.738V18.728L141.266 18.248H142.978V20.504ZM144.696 20.504L144.168 21H142.456V18.728L142.984 18.248H144.696V20.504ZM146.415 20.504L145.887 21H144.175V18.728L144.703 18.248H146.415V20.504ZM159.798 20.472L159.27 21C157.846 21 156.918 20.312 156.678 19.112C156.534 20.456 155.782 21.192 154.646 21.192C153.622 21.192 152.806 20.584 152.566 19.512C152.39 20.6 151.686 21.192 150.598 21.192C149.382 21.192 148.502 20.488 148.294 19.288C148.102 20.376 147.254 21 145.894 21V18.728L146.422 18.248C147.398 18.248 147.83 17.848 147.83 16.888V16.12H150.214V16.888C150.214 17.896 150.486 18.344 151.126 18.344C151.654 18.344 151.99 17.896 151.99 16.888L151.974 16.12H154.358L154.374 16.888C154.374 17.896 154.694 18.344 155.222 18.344C155.782 18.344 156.086 17.848 156.086 16.888V15.56H158.47V16.888C158.47 17.848 158.838 18.248 159.798 18.248V20.472ZM161.509 20.504L160.981 21H159.269V18.728L159.797 18.248H161.509V20.504ZM163.228 20.504L162.7 21H160.988V18.728L161.516 18.248H163.228V20.504ZM164.946 20.504L164.418 21H162.706V18.728L163.234 18.248H164.946V20.504ZM166.665 20.504L166.137 21H164.425V18.728L164.953 18.248H166.665V20.504ZM168.384 20.504L167.856 21H166.144V18.728L166.672 18.248H168.384V20.504ZM172.791 11.976C172.791 12.536 172.375 12.968 171.783 12.968C171.207 12.968 170.775 12.536 170.775 11.976C170.775 11.384 171.207 10.952 171.783 10.952C172.375 10.952 172.791 11.384 172.791 11.976ZM170.407 11.976C170.407 12.536 169.975 12.968 169.399 12.968C168.807 12.968 168.375 12.536 168.375 11.976C168.375 11.384 168.807 10.952 169.399 10.952C169.975 10.952 170.407 11.384 170.407 11.976ZM168.615 21H167.863V18.728L168.391 18.248C169.431 18.248 169.751 17.768 169.751 16.6C169.751 15.944 169.671 15.032 169.527 13.88H171.927C172.055 15.032 172.135 16.12 172.135 17.032C172.135 19.576 170.903 21 168.615 21ZM176.033 8.952V21H173.489V8.952H176.033ZM184.571 19.528C184.571 22.696 183.307 24.904 180.011 24.904C179.323 24.904 178.443 24.824 177.531 24.616V22.072C178.443 22.28 179.291 22.36 179.947 22.36C181.723 22.36 182.555 21.992 182.811 20.84C182.315 21.096 181.691 21.192 180.731 21.192C178.555 21.192 177.243 19.944 177.243 17.816C177.243 15.704 178.843 13.72 180.907 13.72C183.035 13.72 184.571 15.8 184.571 19.528ZM179.003 17.512C179.003 18.104 179.563 18.44 180.635 18.44C181.483 18.44 182.155 18.392 182.747 18.264C182.411 17.048 181.563 16.424 180.395 16.424C179.515 16.424 179.003 16.936 179.003 17.512Z" fill="white"/>
<path d="M116.984 23H136.109V24.056H116.984V23ZM136.109 23H159.798V24.056H136.109V23ZM159.797 23H172.631V24.056H159.797V23ZM172.625 23H176.897V24.056H172.625V23ZM176.891 23H185.003V24.056H176.891V23Z" fill="white"/>
<circle cx="208" cy="15" r="12" fill="#25D366"/>
<path fill-rule="evenodd" clip-rule="evenodd" d="M208.436 8.57823C206.937 8.53136 205.472 9.02201 204.316 9.9581C203.16 10.8942 202.392 12.2114 202.157 13.6626C201.922 15.1138 202.235 16.5992 203.038 17.8402L203.179 18.0572L202.657 20.4278L205.04 19.7714L205.27 19.8953C206.584 20.6039 208.116 20.8184 209.58 20.4987C211.044 20.1789 212.338 19.3468 213.221 18.1585C214.103 16.9702 214.512 15.5074 214.372 14.0445C214.231 12.5815 213.551 11.219 212.458 10.2126C211.365 9.20624 209.935 8.62509 208.436 8.57823ZM203.5 8.99066C204.897 7.85986 206.666 7.26717 208.477 7.32378C210.288 7.38039 212.015 8.08242 213.336 9.29815C214.656 10.5139 215.478 12.1598 215.647 13.927C215.817 15.6942 215.322 17.4613 214.257 18.8968C213.191 20.3323 211.627 21.3374 209.859 21.7237C208.178 22.0909 206.421 21.8748 204.888 21.1169L200.957 22.2001L201.817 18.2887C200.951 16.8366 200.622 15.1324 200.892 13.4657C201.176 11.7127 202.104 10.1215 203.5 8.99066Z" fill="white"/>
<path d="M211.053 15.4932C210.91 15.3897 210.766 15.338 210.623 15.5449L210.049 16.3726C209.906 16.4761 209.81 16.5278 209.619 16.4244C208.902 16.0105 207.898 15.5449 207.037 13.9929C206.989 13.786 207.085 13.6825 207.18 13.5791L207.611 12.8548C207.706 12.7513 207.659 12.6479 207.611 12.5444L207.037 11.0441C206.893 10.6303 206.75 10.682 206.607 10.682H206.224C206.128 10.682 205.937 10.7337 205.746 10.9407C204.694 12.0788 205.124 13.6825 205.889 14.7172C206.033 14.9241 206.989 16.7865 209.045 17.7694C210.575 18.4937 210.91 18.3902 211.34 18.2868C211.866 18.235 212.392 17.7694 212.631 17.3038C212.679 17.1486 212.918 16.4761 212.727 16.3726" fill="white"/>
</svg>
