<svg width="36" height="36" viewBox="0 0 36 36" fill="none" xmlns="http://www.w3.org/2000/svg">
<path fill-rule="evenodd" clip-rule="evenodd" d="M18.0848 35.7966C27.9698 35.7966 35.9831 27.7833 35.9831 17.8983C35.9831 8.01334 27.9698 0 18.0848 0C8.19987 0 0.186523 8.01334 0.186523 17.8983C0.186523 27.7833 8.19987 35.7966 18.0848 35.7966Z" fill="#FF0002"/>
<path fill-rule="evenodd" clip-rule="evenodd" d="M15.621 21.0155L15.6203 14.2628L22.0682 17.6508L15.621 21.0155ZM29.7786 13.0927C29.7786 13.0927 29.5452 11.4366 28.83 10.7073C27.9224 9.74972 26.9052 9.74521 26.4391 9.68963C23.0995 9.44629 18.0903 9.44629 18.0903 9.44629H18.0798C18.0798 9.44629 13.0705 9.44629 9.731 9.68963C9.26415 9.74521 8.24768 9.74972 7.33934 10.7073C6.62415 11.4366 6.39148 13.0927 6.39148 13.0927C6.39148 13.0927 6.15283 15.0379 6.15283 16.9824V18.8059C6.15283 20.7511 6.39148 22.6956 6.39148 22.6956C6.39148 22.6956 6.62415 24.3517 7.33934 25.081C8.24768 26.0386 9.44015 26.0085 9.97114 26.1084C11.8803 26.2932 18.085 26.3502 18.085 26.3502C18.085 26.3502 23.0995 26.3427 26.4391 26.0994C26.9052 26.0431 27.9224 26.0386 28.83 25.081C29.5452 24.3517 29.7786 22.6956 29.7786 22.6956C29.7786 22.6956 30.0172 20.7511 30.0172 18.8059V16.9824C30.0172 15.0379 29.7786 13.0927 29.7786 13.0927Z" fill="white"/>
</svg>
